/* XPM */
static char *_566394785069[] = {
/* columns rows colors chars-per-pixel */
"15 15 51 1 ",
"  c #4E9A06",
". c #4E9A07",
"X c #4F9A07",
"o c #4F9B08",
"O c #5AA017",
"+ c #5BA119",
"@ c #61A522",
"# c #62A522",
"$ c #63A623",
"% c #6FAC35",
"& c #76B03E",
"* c #7CB447",
"= c #7FB64B",
"- c #82B750",
"; c #90C064",
": c #9EC877",
"> c #9FC879",
", c #A3CA7E",
"< c #A0A0A0",
"1 c gray67",
"2 c #AEAEAE",
"3 c #AED08D",
"4 c #C5DDAE",
"5 c #CBE1B6",
"6 c #CFE3BC",
"7 c #C0C0C0",
"8 c gray78",
"9 c gray79",
"0 c #D5D5D5",
"q c #D8D8D8",
"w c #D2E5C0",
"e c #D6E8C6",
"r c #DDECD0",
"t c #E7E7E7",
"y c #EAEAEA",
"u c #ECECEC",
"i c #E9F2E0",
"p c #ECF4E5",
"a c #EFF6E9",
"s c gray94",
"d c #F1F1F1",
"f c #F4F9F0",
"g c #F7FAF5",
"h c #F8FBF5",
"j c #F9F9F9",
"k c #FDFEFC",
"l c #FEFEFD",
"z c #FEFEFE",
"x c #FEFFFE",
"c c white",
"v c None",
/* pixels */
"vvvvvvdjdvvvvvv",
"vvvvxxxxxxxvvvv",
"vvuxxxxxxxxxyvv",
"vvx  ixxxxxxxvv",
"vxxxx xa::::5xv",
"vxxxx#rxfff 4xv",
"qx3 +%6xxx#-xx0",
"tx xx hx    xxt",
"9e-xx xxwXxxxx8",
"vp=x,&xh xxxxxv",
"vxO $xx; oo ,xv",
"vvxxxxxxxxxxxvv",
"vv2xxxxxxxxx1vv",
"vvvvxxxxxxxvvvv",
"vvvvvv<7<vvvvvv"
};
