/* XPM */
static char *_566394861264[] = {
/* columns rows colors chars-per-pixel */
"62 62 73 1 ",
"  c #4E9A06",
". c #4F9B08",
"X c #519C0B",
"o c #569E11",
"O c #589F14",
"+ c #59A016",
"@ c #5CA21A",
"# c #60A41F",
"$ c #62A523",
"% c #65A728",
"& c #67A82A",
"* c #6BAB2E",
"= c #6EAC34",
"- c #70AD36",
"; c #73AE3A",
": c #75B03E",
"> c #77B140",
", c #7BB446",
"< c #7DB549",
"1 c #82B74F",
"2 c #86B955",
"3 c #8BBC5C",
"4 c #8FBF62",
"5 c #92C166",
"6 c #95C26B",
"7 c #98C46F",
"8 c #9CC674",
"9 c #9FC878",
"0 c #A2CA7D",
"q c #959595",
"w c #9D9D9D",
"e c #AFAFAF",
"r c #B3B3B3",
"t c #BCBCBC",
"y c #A6CC83",
"u c #A9CD87",
"i c #ACCF8A",
"p c #AFD18E",
"a c #B2D394",
"s c #B7D69A",
"d c #B9D79D",
"f c #BBD89F",
"g c #BEDAA3",
"h c #C0DBA7",
"j c #C4DDAC",
"k c #C6DEB0",
"l c #C8DFB2",
"z c #CAE0B5",
"x c #CDE2BA",
"c c #D0E4BE",
"v c #C3C3C3",
"b c #CBCBCB",
"n c #D4D4D4",
"m c #DCDCDC",
"M c #D4E6C3",
"N c #D7E8C6",
"B c #DAEACC",
"V c #DEECD2",
"C c #E1EDD5",
"Z c #E4EFDA",
"A c #E7F2DE",
"S c #E8F1DE",
"D c #E4E4E4",
"F c #ECECEC",
"G c #EBF4E4",
"H c #EFF6E9",
"J c #F1F7EC",
"K c #F3F8EF",
"L c #F4F4F4",
"P c #F5F9F2",
"I c #F9FBF6",
"U c #FFFFFF",
"Y c None",
/* pixels */
"YYYYYYYYYYYYYYYYYYYYYYYYYYYYYYYYYYYYYYYYYYYYYYYYYYYYYYYYYYYYYY",
"YYYYYYYYYYYYYYYYYYYYYYYYYYYYYYYYYYYYYYYYYYYYYYYYYYYYYYYYYYYYYY",
"YYYYYYYYYYYYYYYYYYYYYYYYLLIUUUUUUUUILLYYYYYYYYYYYYYYYYYYYYYYYY",
"YYYYYYYYYYYYYYYYYYYYYLIUUUUUUUUUUUUUUUUULYYYYYYYYYYYYYYYYYYYYY",
"YYYYYYYYYYYYYYYYYYFIUUUUUUUUUUUUUUUUUUUUUUIFYYYYYYYYYYYYYYYYYY",
"YYYYYYYYYYYYYYYYFUUUUUUUUUUUUUUUUUUUUUUUUUUUIFYYYYYYYYYYYYYYYY",
"YYYYYYYYYYYYYYYIUUUUUUUUUUUUUUUUUUUUUUUUUUUUUULYYYYYYYYYYYYYYY",
"YYYYYYYYYYYYYFIUUUUUUUUUUUUUUUUUUUUUUUUUUUUUUUUUFYYYYYYYYYYYYY",
"YYYYYYYYYYYYLUUUUUUUUUUUUUUUUUUUUUUUUUUUUUUUUUUUILYYYYYYYYYYYY",
"YYYYYYYYYYYLUUUUUUUUUUUUUUUUUUUUUUUUUUUUUUUUUUUUUULYYYYYYYYYYY",
"YYYYYYYYYYLUUUUUUUUUUUUUUUUUUUUUUUUUUUUUUUUUUUUUUUULYYYYYYYYYY",
"YYYYYYYYYLUUUUUUUUUUUUUUUUUUUUUUUUUUUUUUUUUUUUUUUUUULYYYYYYYYY",
"YYYYYYYYFUUUUIIKKKIUUUUUUUUUUUUUUUUUUUUUUUUUUUUUUUUUUFYYYYYYYY",
"YYYYYYYDUUUVp5<==-10NPUUUUUUUUUUUUUUUUUUUUUUUUUUUUUUUUYYYYYYYY",
"YYYYYYYIUUU7.       +4VIUUUUUUUUUUUUUUUUUUUUUUUUUUUUUUIYYYYYYY",
"YYYYYYLUUUU5         .-MUUUUUUUUUUUUUUUUUUUUUUUUUUUUUUULYYYYYY",
"YYYYYYUUUUU7X%<32=o    -CUUUUUUUUUUUUUUUUUUUUUUUUUUUUUUUYYYYYY",
"YYYYYLUUUUUjjAPIPHz,.  .4IUUUUUUUUUUUUUUUUUUUUUUUUUUUUUULYYYYY",
"YYYYmUUUUUUUUUUUUUUG2   oxUUUUUMppppppppppppppppppplUUUUUYYYYY",
"YYYYLUUUUUUUUUUUUUUUV=   3IUUUU9                   2IUUUULYYYY",
"YYYYUUUUUUUUUUUUUUUUUyX. %GUUUU9                   2IUUUUUYYYY",
"YYYDUUUUUUUUUUUUUUUUUN@  ozUUUUp**************$   X2IUUUUUDYYY",
"YYYLUUUUUUUUUUUUUUUUUG-  XaUUUUJAAAAAAAAAAAASV3   X0IUUUUULYYY",
"YYYUUUUUUUUUUUUUUUUUUP<  .0UUUUUUUUUUUUUUUUUIp+   1GUUUUUUIYYY",
"YYnUUUUUUUUUUUUIUUUUUI2   7UUUUUUUUUUUUUUUUUh@   -ZUUUUUUUUnYY",
"YYDUUUUUUUUHj9327gGUUU3X .6IUUUUUUUUUUUUUUUc$   &NUUUUUUUUUDYY",
"YYLUUUUUUIl>X    X=fPI3.  7UUUUUUUUUUUUUUUB=   #lUUUUUUUUUUFYY",
"YYLUUUUUIg$ . .XX  OyJ1  X0UUUUUUUUUUUUUUZ,.  @sIUUUUUUUUUULYY",
"YYIUUUUUN&   $6i0,o Op>  XaUUUUUUKKPKPKPS3X  X9HPPIUUUUUUUUIYY",
"YYIUUUUK2   -NIUIJa@ #+. XjUUUUUA2,,,,,,-X   X-,,<zUUUUUUUULYY",
"YYIUUUUzO X@MUUUUUIso    +NUUUUUB@               XsUUUUUUUUIYY",
"YYIUUUI4   4IUUUUUUP3.  .&HUUUUUB@...       ..   .sUUUUUUUUIYY",
"YYIUUUG&  XxUUUUUUUUM#   2IUUUUUG0888;X   &8888899MUUUUUUUULYY",
"YYLUUUxo  *GUUUUUUUUJ>  .yUUUUUUUUUIN*   $xIIUUIIUUUUUUUUUULYY",
"YYLUUUs   2PUUUUUUUUC&  XMUUUUUUUUUZ>.  +fIUUUUUUUUUUUUUUUUFYY",
"YYDUUUy  .9UUUUUUUUUsX  -KUUUUUUUUH2.  ouIUUUUUUUUUUUUUUUUUFYY",
"YYnUUU0   pIUUUUUUUJ,  XuUUUUUUUUP8X  X7KUUUUUUUUUUUUUUUUUUnYY",
"YYvUUUy  XaUUUUUUUUho  @CUUUUUUUIuX  X2HUUUUUUUUUUUUUUUUUUIvYY",
"YYYLUUf.  yUUUUUUUG;   9IUUUUUUIg@   ;AUUUUUUUUUUUUUUUUUUULYYY",
"YYYFUUNo  2PUUUUUP8.  =CUUUUUUUx$   *BUUUUUUUUUUUUUUUUUUUUFYYY",
"YYYnUUJ>  @xUUUUPuo  OsIUUUUUUS=   OfGHGHGGGGGGGGGGJUUUUUUbYYY",
"YYYYLUUfo  =kHJV8O  X9PUUUUUUUB+   o*======---=--=-9IUUUULYYYY",
"YYYYVUUK5X  o-:$X .X9JUUUUUUUUBo              .   X2IUUUUmYYYY",
"YYYYYLUUH6+       $pPUUUUUUUUUBo.  .  X   .   . . .2IUUUIYYYYY",
"YYYYYDUUUPj2%@o+=9VUUUUUUUUUUUHy0000000000000000000hUUUUmYYYYY",
"YYYYYYLUUUUISBNCHUUUUUUUUUUUUUUUUUUUUUUUUUUUUUUUUUUUUUULYYYYYY",
"YYYYYYbUUUUUUUUUUUUUUUUUUUUUUUUUUUUUUUUUUUUUUUUUUUUUUUUbYYYYYY",
"YYYYYYYDUUUUUUUUUUUUUUUUUUUUUUUUUUUUUUUUUUUUUUUUUUUUUUDYYYYYYY",
"YYYYYYYYLUUUUUUUUUUUUUUUUUUUUUUUUUUUUUUUUUUUUUUUUUUUULYYYYYYYY",
"YYYYYYYYtLUUUUUUUUUUUUUUUUUUUUUUUUUUUUUUUUUUUUUUUUUULrYYYYYYYY",
"YYYYYYYYYbIUUUUUUUUUUUUUUUUUUUUUUUUUUUUUUUUUUUUUUUUIvYYYYYYYYY",
"YYYYYYYYYYbIUUUUUUUUUUUUUUUUUUUUUUUUUUUUUUUUUUUUUUIvYYYYYYYYYY",
"YYYYYYYYYYYvIUUUUUUUUUUUUUUUUUUUUUUUUUUUUUUUUUUUULvYYYYYYYYYYY",
"YYYYYYYYYYYYrFUUUUUUUUUUUUUUUUUUUUUUUUUUUUUUUUUUFeYYYYYYYYYYYY",
"YYYYYYYYYYYYYYmIUUUUUUUUUUUUUUUUUUUUUUUUUUUUUUUmYYYYYYYYYYYYYY",
"YYYYYYYYYYYYYYYvLUUUUUUUUUUUUUUUUUUUUUUUUUUUULtYYYYYYYYYYYYYYY",
"YYYYYYYYYYYYYYYYYnLUUUUUUUUUUUUUUUUUUUUUUUULbYYYYYYYYYYYYYYYYY",
"YYYYYYYYYYYYYYYYYYqbFIUUUUUUUUUUUUUUUUUUIFbqYYYYYYYYYYYYYYYYYY",
"YYYYYYYYYYYYYYYYYYYYYenFLUUUUUUUUUUUILFnrYYYYYYYYYYYYYYYYYYYYY",
"YYYYYYYYYYYYYYYYYYYYYYYYwrbnmDFFDmmvrwYYYYYYYYYYYYYYYYYYYYYYYY",
"YYYYYYYYYYYYYYYYYYYYYYYYYYYYYYYYYYYYYYYYYYYYYYYYYYYYYYYYYYYYYY",
"YYYYYYYYYYYYYYYYYYYYYYYYYYYYYYYYYYYYYYYYYYYYYYYYYYYYYYYYYYYYYY"
};
