/* XPM */
static char *diaz128[] = {
/* columns rows colors chars-per-pixel */
"128 128 83 1 ",
"  c #469600",
". c #499700",
"X c #4C9904",
"o c #4F9B08",
"O c #529C0C",
"+ c #569F11",
"@ c #589F13",
"# c #57A014",
"$ c #5AA116",
"% c #5DA31B",
"& c #60A41F",
"* c #62A522",
"= c #66A728",
"- c #67A829",
"; c #6AAA2C",
": c #6DAC32",
"> c #70AE36",
", c #73AF3A",
"< c #75B13D",
"1 c #77B240",
"2 c #7BB445",
"3 c #7EB54A",
"4 c #81B74D",
"5 c #82B84F",
"6 c #85B953",
"7 c #88BB57",
"8 c #8BBD5C",
"9 c #8FBF61",
"0 c #90BF63",
"q c #8FC062",
"w c #92C165",
"e c #95C36A",
"r c #98C46E",
"t c #9CC673",
"y c #9EC877",
"u c #9FC878",
"i c #A2CA7D",
"p c #9E9E9E",
"a c #A4A4A4",
"s c #ACACAC",
"d c #B3B3B3",
"f c #BBBBBB",
"g c #A6CC82",
"h c #A9CE86",
"j c #ABCF88",
"k c #AED18C",
"l c #B0D28F",
"z c #B3D494",
"x c #B7D699",
"c c #B9D79C",
"v c #BAD89E",
"b c #BDD9A3",
"n c #C0DBA7",
"m c #C4DDAB",
"M c #C7DFB0",
"N c #C8DFB1",
"B c #CAE1B4",
"V c #CEE3BA",
"C c #D1E5BE",
"Z c #C4C4C4",
"A c #CCCCCC",
"S c #D4D4D4",
"D c #DBDBDB",
"F c #D4E7C3",
"G c #D7E8C6",
"H c #D8E9C7",
"J c #DAEACB",
"K c #DEECD1",
"L c #E1EED5",
"P c #E3EFD8",
"I c #E6F1DC",
"U c #E8F2DE",
"Y c #E4E4E4",
"T c #ECECEC",
"R c #ECF4E4",
"E c #EFF6E8",
"W c #F1F7EB",
"Q c #F3F8EE",
"! c #F4F4F4",
"~ c #F5FAF1",
"^ c #F8FBF6",
"/ c #FFFFFF",
"( c None",
/* pixels */
"((((((((((((((((((((((((((((((((((((((((((((((((((((((((((((((((((((((((((((((((((((((((((((((((((((((((((((((((((((((((((((((((",
"((((((((((((((((((((((((((((((((((((((((((((((((((((((((((((((((((((((((((((((((((((((((((((((((((((((((((((((((((((((((((((((((",
"((((((((((((((((((((((((((((((((((((((((((((((((((((((((((((((((((((((((((((((((((((((((((((((((((((((((((((((((((((((((((((((((",
"(((((((((((((((((((((((((((((((((((((((((((((((((((((((((((((!!TT!T(((((((((((((((((((((((((((((((((((((((((((((((((((((((((((((",
"((((((((((((((((((((((((((((((((((((((((((((((((((((!!!^!!/!^^/^/^^/!/!!!!!!((((((((((((((((((((((((((((((((((((((((((((((((((((",
"((((((((((((((((((((((((((((((((((((((((((((((((T!!!!^^///////////////////^!!!!!((((((((((((((((((((((((((((((((((((((((((((((((",
"((((((((((((((((((((((((((((((((((((((((((((!!!!///!///////////////////////^//!/!!!T((((((((((((((((((((((((((((((((((((((((((((",
"((((((((((((((((((((((((((((((((((((((((((T!!^////////////////////////////////////^^!T((((((((((((((((((((((((((((((((((((((((((",
"(((((((((((((((((((((((((((((((((((((((T!^^/////////////////////////////////////////^^!!T(((((((((((((((((((((((((((((((((((((((",
"((((((((((((((((((((((((((((((((((((((!!^^/////////////////////////////////////////////^!!((((((((((((((((((((((((((((((((((((((",
"(((((((((((((((((((((((((((((((((((T!!^//////////////////////////////////////////////////^^!T(((((((((((((((((((((((((((((((((((",
"((((((((((((((((((((((((((((((((((!!///////////////////////////////////////////////////////^!!((((((((((((((((((((((((((((((((((",
"((((((((((((((((((((((((((((((((!!///////////////////////////////////////////////////////////^!!((((((((((((((((((((((((((((((((",
"((((((((((((((((((((((((((((((T!^^/////////////////////////////////////////////////////////////^!(((((((((((((((((((((((((((((((",
"(((((((((((((((((((((((((((((!!^/////////////////////////////////////////////////////////////////!!(((((((((((((((((((((((((((((",
"((((((((((((((((((((((((((((!!///////////////////////////////////////////////////////////////////^^!((((((((((((((((((((((((((((",
"((((((((((((((((((((((((((T!///////////////////////////////////////////////////////////////////////^!T((((((((((((((((((((((((((",
"(((((((((((((((((((((((((T!^/////////////////////////////////////////////////////////////////////////!T(((((((((((((((((((((((((",
"((((((((((((((((((((((((!!///////////////////////////////////////////////////////////////////////////^!!((((((((((((((((((((((((",
"(((((((((((((((((((((((T^//////////////////////////////////////////////////////////////////////////////!T(((((((((((((((((((((((",
"((((((((((((((((((((((!!////////////////////////////////////////////////////////////////////////////////^!((((((((((((((((((((((",
"(((((((((((((((((((((!!//////////////////////////////////////////////////////////////////////////////////!T(((((((((((((((((((((",
"((((((((((((((((((((!!///////////////////////////////////////////////////////////////////////////////////^^!((((((((((((((((((((",
"(((((((((((((((((((T!//////////////////////////////////////////////////////////////////////////////////////!T(((((((((((((((((((",
"((((((((((((((((((!!////////////////////////////////////////////////////////////////////////////////////////!T((((((((((((((((((",
"(((((((((((((((((T!^/////^^~QQERRRRRRE~~^////////////////////////////////////////////////////////////////////!T(((((((((((((((((",
"((((((((((((((((T!^////^~EULJCBmnbbnMBGLRQ^//////////////////////////////////////////////////////////////////^!Y((((((((((((((((",
"((((((((((((((((!^////^RJBbzhitre9qqrygznCLR~^////////////////////////////////////////////////////////////////^!((((((((((((((((",
"(((((((((((((((T!////^RVg83<:;--****=;:14wjnKE^////////////////////////////////////////////////////////////////!T(((((((((((((((",
"((((((((((((((T!/////~Pb5*#OoXXXXXXX XOO$;2ezVI~////////////////////////////////////////////////////////////////!T((((((((((((((",
"((((((((((((((!//////~Kz<+XXXXXXXXXXXXXXOO$;1rbKQ///////////////////////////////////////////////////////////////^!((((((((((((((",
"(((((((((((((T!//////~Jk,XXXXXXXXXoXXXXXXX.o$:exK~///////////////////////////////////////////////////////////////^T(((((((((((((",
"((((((((((((T!///////~Jl,o..XXXOOOXX.XXXoXXoo@;8cK~///////////////////////////////////////////////////////////////!Y((((((((((((",
"((((((((((((!!///////~Jl<@@%=-:>>>:-*$OooXXXXXO;wvP^//////////////////////////////////////////////////////////////^!((((((((((((",
"(((((((((((T!////////~Jx4;<4wygkkjgt83;$oXXoXXX@:eBR^//////////////////////////////////////////////////////////////!Y(((((((((((",
"((((((((((YT/////////~ImuwiznVFJJHFBbjw2=@oXoXXo+<jFE/////////////////////////////^/////////////////////////////////!(((((((((((",
"((((((((((T!/////////^EPFVJIREQ~~~QERKVl9:@XXoXXX&7zL///////////^/^^^^^^~^~^^^^^^^~^^~^^~^~^^^^^^~^~~^^^^^^^////////!T((((((((((",
"((((((((((!///////////^~WW^//////////^QJx0:+oXoXX+:eCQ/////////^RPHCCHHCFFFHFGFFFFFFHHCHFFFHGFFFFHFHFFFFGJRQ^///////^!((((((((((",
"(((((((((T!////////////^///////////////ELb9;+XXXXO$4vI~////////QFciweeeeeeeeeeereeeeeeeeeeweeeeeeeeeeeeeegML^////////^Y(((((((((",
"(((((((((T^/////////////////////////////^Kz6&oXoXXo:iCE////////Rmr2-;;;;;;;-;;-;;;;;;;;;;;;;;;;;;;;;;;--;4kFQ////////!T(((((((((",
"((((((((T!^//////////////////////////////QFg,OoXXXX*8bR////////Uv9*OO#O#OO+OO+OOO#OO@OOOOO+OO+OO+OO++OOOO:iVQ/////////!Y((((((((",
"((((((((T!///////////////////////////////^Rm8*OXXXX$1hL////////Rx7% .....XXXXX.XXX.XXXXX.XXXXXX.XXXXXXXXX-uVE/////////!T((((((((",
"(((((((D!/////////////////////////////////^Hi<@.XXXO:rF^///////Uz7%..XX.X.XXXX.XXX.XXXXXXXXXXXXXXXXXXXXXX;uBE//////////!((((((((",
"(((((((Y^//////////////////////////////////Iz6&XXXXO&8BE///////Rbw;##$$$$$$%#$$$#$$$$$$$$$#$$$#@OOoXOXoXX;uVE//////////!Y(((((((",
"(((((((T^//////////////////////////////////RMr-XXXXO$3bR^//////EBh82222223223232223222322224244,*#OXoXXXX;uVE///////////T(((((((",
"((((((Y!///////////////////////////////////QFh:OXoXOO<xL~//////~Kmzhjjjjjjjjhjjjjjjjhhhkjjjjjgt7:#oXXXXXO:gFW//////////^TY((((((",
"((((((T!^//////////////////////////////////~Kz<OXXXXO,kJ~//////^QRIKLLLPLLLLLLLLLLLLLLLLLLLPPHnt:+oXoXXO$4xL~///////////!T((((((",
"((((((!!///////////////////////////////////^Ub2+oXoXX:gFQ///////////////////////////////////^Lv9;OoXXoX$,tBE////////////!T((((((",
"((((((!^///////////////////////////////////^Em4#oXXXX-iVE//////////////////////////////////^Imq:@ooXXoO:rmU^////////////^!((((((",
"(((((D!////////////////////////////////////^WB6$oXoXo-tBE/////////////////////////////////^RNu,+oXXXX+;8nL^//////////////!D(((((",
"(((((Y!//////////////////////^~~^^//////////~B7%OXXXX-rNE////////////////////////////////^RCy<%oXXXoo=8xL~///////////////!Y(((((",
"(((((T^////////////////^~RILJFCCFGKIRQ^/////~B8&OXXXX=emR////////////////////////////////RFj2$oXXXXO*4lJ~////////////////!Y(((((",
"((((DT^///////////////^EJBzgte99wrizmHR^///^~V8&OXXXX*emE///////////////////////////////~Gh4&OoXoXX&4hFQ^////////////////^T(((((",
"((((DT//////////////^EKBlt7<:-==-;<5ejmHR~//~V8&OXXXX=emR//////////////////////////////WJx6=OXXXXO$1gVE//////////////////^TD((((",
"((((D!^////////////^RFkq1-&@+OOOO++$=,7gNP~/~V7&OXXXX=rNR/////////////////////////////^Lx8-OXXXXX$<tVR^//////////////////^!D((((",
"((((Y!////////////^RBj5-OXX.XXX..XX.XO*1ynLQ~B7&OXXXX-tBE////////////////////////////~Imw:#XXoXO@:tbU/////////////////////!Y((((",
"((((T!///////////^RVt2*OXXXX..XXXX...Xo%:0bJRB7%XXXXo-uVQ////////////////////////////Rmr:#oXoXXO:0bU^/////////////////////!T((((",
"((((T!///////////RCg1%XXXXXO+%*---*$+oXXO:evFn4$OXXXX;iCQ///////////////////////^//^RVi1$XooXOO-7zK^/////////////////////!!T((((",
"((((T///////////^Jg3*XXXXXO%>4wturw3;%oXX$:0xk2@OXXXo:hHQ///////////^^^^^^~^^~~~^^^RBg1%OXXXXO&3lFR!^^~^//////////////////!T((((",
"((((T!^////////^In7*OXXooO=2rknBVBblr4;@oo@>00:@oXXoO,lK~/////////^ELFFFFFFFHFHFGFFmg5*XXXoXoO*5kBFGFFGPE/////////////////!T((((",
"((((!^/////////RBi:OoXXXO=8kCPREQERLFz9>@Xo%::&OoXXoO2xP^/////////QJlyeeeeeeeeeeeee7<*+oXXoXXO&>7weeertxK^////////////////^T((((",
"((((T^/////////Ll5%XXXXO*4lGE//////^~Kve:@oo@%+OoXXO#4nU^////////^RBe,;;;;;;-;;;;;;*#OXXoooXXO$&;;;;;;<eC~^////////////////T((((",
"((((!^////////ECw;+XXXX%2iGW^////////QLn0:+XoooXoXXO%6NE^////////^Rm5%+OO+OOOO++OO+OoXoXXoXoXooOO##OO#&7BQ/////////////////T((((",
"((((T////////!Pv3@oXooo;rMR///////////^Lx7*oXXooXXXO=8V~/////////^Rn3OX.XXXXXXXXXXXXXXoXXXXXXXX.X..X X#3BQ^///////////////^T((((",
"((((!^///////WCi:ooXXo$2xK~////////////~Hl1@oXXXXXXO:rG^/////////^Rn2OXX.XX.XXXXXXXXXXXXXXXXXX..X....X+3BW////////////////^T((((",
"((((T!///////Ub0*XXXXO;9VQ/////////////^WVw:@XXoXXX$<iK//////////^RM8-&%%$&%$@OXXOXOOXXO#$$%%%%%%%%%%&;9VQ^///////////////^T((((",
"((((T^///////Kj2$XXXX@<gJ///////////////^Pl6&XXoXXX%5zI//////////^QFg86555631:$oXXoXXXX$:25565665555568jJ~///////////////^!T((((",
"((((T^//////^Gr:+XXXX&7xU////////////////ENt;oXooXX*qbR///////////~PBzzzzzzgq1%oXOXXXO%<whzzzlzlzzzzzzxNU^////////////////^T((((",
"((((T!//////QV8*OXXXX-tBR////////////////~Jl<OXXXXX;iVE////////////~RUIIUILBt<$XXoXXX$1tmLIIIIIIIIIIIIIE^/////////////////!T((((",
"((((T!/////^Rm3%oXXXO>kG~////////////////~Kz1OoXXoO,kJQ//////////////////^Imw:#XXoXO#:rnU/////////////////////////////////!Y((((",
"((((Y!/////^Pc2+oXXo+1vP^////////////////QHj:OoXXo$2bI^//////////////////Unr:$oXXXX#:wnI^////////////////////////////////^!Y((((",
"((((D!^////~Kz,OXXXO%4mR^////////////////EBt;oXXXO*8BE/////////////////^RVy<$XXoXXO;8xL^/////////////////////////////////^!Y((((",
"((((DT/////QJj>oXXXO&8BQ^////////////////Iz6*XXXX@>yJ^/////////////////RVg2$OXXoXO=6xKQ//////////////////////////////////^TD((((",
"((((DT^////QFg:XoXXO=wC^////////////////^Ju,@.XXX%5lP////////////////^QHj3%oXXXXo*3hJQ///////////////////////////////////^TS((((",
"((((AT^////QFg;oXXX+:tH^///////////////^EM8*OXXXX=emR////////////////QHz5*OXXoXO%1jFR////////////////////////////////////!YA((((",
"(((((Y!////ECi:XXXX+:tJ^///////////////~Jl<+oXXoO,jJQ//////////////^^Lx9-ooXXXo$<rVE^////////////////////////////////////!Y(((((",
"(((((D!////QFi:XXXX+,uJ////////////////Rne-oXXXO%6nR^//////////////^Pb0;@XXoXoO>ymU^/////////////////////////////////////!D(((((",
"(((((S!^///QFj:XXXX+:yJ^//////////////^Jg2$XXXX#>rF~//////////////^Imt:+oXXXo@:0nI^//////////////////////////////////////TS(((((",
"(((((AT^///QJj,OXXX+:tH^/////////////^Rm8*#XXXX%7zI//////////////^RVr,$oXXXoO=9xL^//////////////////////////////////////^TZ(((((",
"((((((T!///^Kz<OXXX+;eF^/////////////ECg,+XXXXO:iVE//////////////RCh1$OXXXXO*6xJ~///////////////////////////////////////!Y((((((",
"((((((Y!^//^Ub3$oXXO&8NQ^///////////^Lk4&oXXXO&5bI^/////////////QFg3&ooXXXo*5kJQ^///////////////////////////////////////TD((((((",
"((((((ST^//^EB7*oXXo@4nU^//////////~Ln8;OXXXX%<iG~/////////////QJz5&OXXoXO%2hFQ////////////////////////////////////////^TS((((((",
"((((((AY!///^Fr:@XXoO>hFQ//////////Imt:+oXXXo;0MR/////////////^Lz7=OoXXoX%2iCE^////////////////////////////////////////!DZ((((((",
"(((((((D!////Lk3@XXoX=9cL^///////~UBy<@XXoXO&4xL~////////////^QCr:+XXXoXo*6jFPRIIUIUIIUIIIUUIUIUUIUIUIUUIRQ^///////////!D(((((((",
"(((((((AT^///RMr;XXXX@:emR^/////~Lny,%ooXXX%4gGQ/////////////^Rb4%oXoXXoO*5ykxzzzzzzzzzxzzzzzzzzzzzzzzzzznHR^/////////^TA(((((((",
"(((((((fT!///~Kz3@oXXo@<ynJURRRLFbe<@oXXXO$<yNR//////////////^Pv1OoXXoXoO%,366667666666666766666667666666rbJ~/////////!Y((((((((",
"((((((((DT///^QCt>@XXoo%>7iznmblr5:%OXXXX$<rNR^//////////////~Px1OoXXooXoO$%%%%%&%%%%%&%%%%%&%%%%%%&%%%%&<hFQ////////^TS((((((((",
"((((((((AY!////Pb0;OoXXXO=<6qw84>*oXXXoO%<ynI^///////////////^Pv1OoXXXoXXXX.XX.X.X.X.X.X.X.X.XX.X.X.XX...=yBE////////!YA((((((((",
"(((((((((S!^///QKb8;+XXXoO@%***%+OoX.Xo*3iVI^////////////////^Px1OXXXXXXXX.XX.X..X.XX.X.XX.XX.XXX...X..X.-uVE///////^!S(((((((((",
"(((((((((AT^////~Kzw,%+XXX.......XXo+%:6hVR^/////////////////^Iv2$OOOOoOOOOOOOoOOOOoOooOoOOooOoOoOOOOOOoo:iCE///////!TZ(((((((((",
"((((((((((D!^////QKmi5;$oX.......Xo$;3ubJR^//////////////////^Un6-*&*&**&&&&************************&*&&*1hFQ//////!!D((((((((((",
"((((((((((AY!/////^IBle3:;*%%%%%*=>4wkBLQ////////////////////^RCgw888888998888887888888888888888888888888ynKQ//////!YA((((((((((",
"(((((((((((S!//////^RKVbjt0755579ykbCLR^//////////////////////~RJCVCVVVVVVCVVVVVCVVVVVVVVVVVVVVVVVVVVVVVVFIQ^/////^!S(((((((((((",
"(((((((((((ZT!^///////QUHNbxzlzxbBHPQ^/////////////////////////^^~QQQQ~QQQQQQQ~~Q~~~Q~Q~~Q~QQ~Q~~~QQ~QQ~~~^^//////!Yf(((((((((((",
"((((((((((((ST^///////^^QERUIIIUREQ^//////////////////////////////^///^///^////^///^//^///^///^//^//^////////////!TS((((((((((((",
"((((((((((((fD!//////////////////////////////////////////////////////////////////////////////////////////////////!Sf((((((((((((",
"(((((((((((((AY^////////////////////////////////////////////////////////////////////////////////////////////////!YZ(((((((((((((",
"((((((((((((((ST!//////////////////////////////////////////////////////////////////////////////////////////////!TS((((((((((((((",
"((((((((((((((fD!^/////////////////////////////////////////////////////////////////////////////////////////////!Sf((((((((((((((",
"(((((((((((((((ZY!///////////////////////////////////////////////////////////////////////////////////////////^!YZ(((((((((((((((",
"((((((((((((((((AY!//////////////////////////////////////////////////////////////////////////////////////////!YA((((((((((((((((",
"((((((((((((((((dST^////////////////////////////////////////////////////////////////////////////////////////^TA(((((((((((((((((",
"(((((((((((((((((dDT^//////////////////////////////////////////////////////////////////////////////////////!TSd(((((((((((((((((",
"((((((((((((((((((fD!!////////////////////////////////////////////////////////////////////////////////////^!Sf((((((((((((((((((",
"(((((((((((((((((((fDT^//////////////////////////////////////////////////////////////////////////////////!TDf(((((((((((((((((((",
"((((((((((((((((((((ZD!^////////////////////////////////////////////////////////////////////////////////!!DZ((((((((((((((((((((",
"(((((((((((((((((((((fDT^//////////////////////////////////////////////////////////////////////////////!TDf(((((((((((((((((((((",
"((((((((((((((((((((((ZDT^////////////////////////////////////////////////////////////////////////////^TDf((((((((((((((((((((((",
"(((((((((((((((((((((((fST!//////////////////////////////////////////////////////////////////////////!YSd(((((((((((((((((((((((",
"((((((((((((((((((((((((fST!^//////////////////////////////////////////////////////////////////////^!TSf((((((((((((((((((((((((",
"(((((((((((((((((((((((((sAY!/////////////////////////////////////////////////////////////////////^!DAs(((((((((((((((((((((((((",
"((((((((((((((((((((((((((sZDT!//////////////////////////////////////////////////////////////////!TDZa((((((((((((((((((((((((((",
"((((((((((((((((((((((((((((fAY!^///////////////////////////////////////////////////////////////!YSd((((((((((((((((((((((((((((",
"(((((((((((((((((((((((((((((dAYT!///////////////////////////////////////////////////////////^!TDAs(((((((((((((((((((((((((((((",
"(((((((((((((((((((((((((((((((fSY!^////////////////////////////////////////////////////////^!DSf(((((((((((((((((((((((((((((((",
"((((((((((((((((((((((((((((((((sADT!!^///////////////////////////////////////////////////!!TDZs((((((((((((((((((((((((((((((((",
"((((((((((((((((((((((((((((((((((dZST!^////////////////////////////////////////////////!!YDZs((((((((((((((((((((((((((((((((((",
"((((((((((((((((((((((((((((((((((((fADT!!^//////////////////////////////////////////^!TTDAf((((((((((((((((((((((((((((((((((((",
"((((((((((((((((((((((((((((((((((((((dZSYT!^//////////////////////////////////////^!TYSZs((((((((((((((((((((((((((((((((((((((",
"((((((((((((((((((((((((((((((((((((((((dZSDTT!!^^///////////////////////////^/^!!!YDSZd((((((((((((((((((((((((((((((((((((((((",
"((((((((((((((((((((((((((((((((((((((((((adZADYT!!^///////////////////////^^!!TYDAZsa((((((((((((((((((((((((((((((((((((((((((",
"(((((((((((((((((((((((((((((((((((((((((((((afASDYTTT!!!!^!^^^!^/!!^!^!!!TTTYDAZfa(((((((((((((((((((((((((((((((((((((((((((((",
"((((((((((((((((((((((((((((((((((((((((((((((((psdfZASSDYYTTTTTTTTTTYDDSSAZfdsp((((((((((((((((((((((((((((((((((((((((((((((((",
"((((((((((((((((((((((((((((((((((((((((((((((((((((pasffZASSSSSSSSAAAZZfsap((((((((((((((((((((((((((((((((((((((((((((((((((((",
"((((((((((((((((((((((((((((((((((((((((((((((((((((((((((((((pppp((((((((((((((((((((((((((((((((((((((((((((((((((((((((((((((",
"((((((((((((((((((((((((((((((((((((((((((((((((((((((((((((((((((((((((((((((((((((((((((((((((((((((((((((((((((((((((((((((((",
"((((((((((((((((((((((((((((((((((((((((((((((((((((((((((((((((((((((((((((((((((((((((((((((((((((((((((((((((((((((((((((((((",
"(((((((((((((((((((((((((((((((((((((((((((((((((((((((((((((((((((((((((((((((((((((((((((((((((((((((((((((((((((((((((((((((("
};
