/* XPM */
static char *diaz64[] = {
/* columns rows colors chars-per-pixel */
"64 64 76 1 ",
"  c #4D9904",
". c #4F9B08",
"X c #529C0B",
"o c #569F11",
"O c #59A016",
"+ c #5DA31C",
"@ c #60A41F",
"# c #62A623",
"$ c #67A829",
"% c #6AAA2D",
"& c #6DAB31",
"* c #71AE37",
"= c #73AF3A",
"- c #77B13F",
"; c #77B240",
": c #7AB343",
"> c #7DB548",
", c #81B74D",
"< c #86BA54",
"1 c #88BB57",
"2 c #8ABC5A",
"3 c #8FBF61",
"4 c #90BF62",
"5 c #91C164",
"6 c #96C36C",
"7 c #98C46E",
"8 c #9AC571",
"9 c #9EC877",
"0 c #9FC878",
"q c #A2CA7D",
"w c #979797",
"e c #9A9A9A",
"r c gray65",
"t c #ACACAC",
"y c #B3B3B3",
"u c gray75",
"i c #A7CD83",
"p c #A8CD85",
"a c #ACCF8A",
"s c #ADD08C",
"d c #B3D494",
"f c #B6D699",
"g c #B9D79D",
"h c #BAD89E",
"j c #BDD9A2",
"k c #C0DBA6",
"l c #C3DDAB",
"z c #C7DFB0",
"x c #C8DFB1",
"c c #CAE1B5",
"v c #CDE3B9",
"b c #D1E5BE",
"n c #C3C3C3",
"m c #CBCBCB",
"M c #D3D3D3",
"N c #DCDCDC",
"B c #D4E7C3",
"V c #D7E8C7",
"C c #D7E8C8",
"Z c #DAEACB",
"A c #DEECD1",
"S c #E1EED5",
"D c #E3EFD8",
"F c #E6F1DC",
"G c #E8F2DE",
"H c #E4E4E4",
"J c #ECECEC",
"K c #ECF5E5",
"L c #EFF6E8",
"P c #F0F7EA",
"I c #F2F8ED",
"U c #F4F4F4",
"Y c #F6FAF2",
"T c #F8FBF5",
"R c #FFFFFF",
"E c None",
/* pixels */
"EEEEEEEEEEEEEEEEEEEEEEEEEEEEEEEEEEEEEEEEEEEEEEEEEEEEEEEEEEEEEEEE",
"EEEEEEEEEEEEEEEEEEEEEEEEEEEEEEEEEEEEEEEEEEEEEEEEEEEEEEEEEEEEEEEE",
"EEEEEEEEEEEEEEEEEEEEEEEEEUUTRTRRRRRTTUUEEEEEEEEEEEEEEEEEEEEEEEEE",
"EEEEEEEEEEEEEEEEEEEEEEURRRRRRRRRRRRRRRRRRUEEEEEEEEEEEEEEEEEEEEEE",
"EEEEEEEEEEEEEEEEEEEJTRRRRRRRRRRRRRRRRRRRRRRTJEEEEEEEEEEEEEEEEEEE",
"EEEEEEEEEEEEEEEEEJRRRRRRRRRRRRRRRRRRRRRRRRRRRRJEEEEEEEEEEEEEEEEE",
"EEEEEEEEEEEEEEEETRRRRRRRRRRRRRRRRRRRRRRRRRRRRRRTEEEEEEEEEEEEEEEE",
"EEEEEEEEEEEEEEURRRRRRRRRRRRRRRRRRRRRRRRRRRRRRRRRRJEEEEEEEEEEEEEE",
"EEEEEEEEEEEEEURRRRRRRRRRRRRRRRRRRRRRRRRRRRRRRRRRRRUEEEEEEEEEEEEE",
"EEEEEEEEEEEERRRRRRRRRRRRRRRRRRRRRRRRRRRRRRRRRRRRRRRTEEEEEEEEEEEE",
"EEEEEEEEEEETRRRRRRRRRRRRRRRRRRRRRRRRRRRRRRRRRRRRRRRRTEEEEEEEEEEE",
"EEEEEEEEEETRRRRRRRRRRRRRRRRRRRRRRRRRRRRRRRRRRRRRRRRRRTEEEEEEEEEE",
"EEEEEEEEETRRRRRRRRRRRRRRRRRRRRRRRRRRRRRRRRRRRRRRRRRRRRUEEEEEEEEE",
"EEEEEEEEURRRKVldiidcGRRRRRRRRRRRRRRRRRRRRRRRRRRRRRRRRRRUEEEEEEEE",
"EEEEEEEJRRRZ=OX.. .X$8ARRRRRRRRRRRRRRRRRRRRRRRRRRRRRRRRRJEEEEEEE",
"EEEEEEERRRRvo  .  .. .$jRRRRRRRRRRRRRRRRRRRRRRRRRRRRRRRRREEEEEEE",
"EEEEEEURRRRvo .ooX. .  OjRRRRRRRRRRRRRRRRRRRRRRRRRRRRRRRRUEEEEEE",
"EEEEEHRRRRRb*2dccj8$. . #BRRRRRRRRRRRRRRRRRRRRRRRRRRRRRRRRNEEEEE",
"EEEEEURRRRRIKTRRRRRS2X.  1YRRRRRTIIIIIIIIIIIIIIIIIIIITRRRRUEEEEE",
"EEEEHRRRRRRRRRRRRRRRK, ..OvRRRRRd------=-------=-;--;cRRRRRNEEEE",
"EEEEURRRRRRRRRRRRRRRRZ# . 5RRRRR0       .            fRRRRRUEEEE",
"EEEETRRRRRRRRRRRRRRRRT4   *KRRRR0                . ..hRRRRRREEEE",
"EEEHRRRRRRRRRRRRRRRRRRjX  OZRRRRj324533544242442O.. XhRRRRRRHEEE",
"EEEURRRRRRRRRRRRRRRRRRCO..ozRRRRRRTTTRTTTRTTRTRfO.  %ARRRRRRUEEE",
"EEERRRRRRRRRRRRRRRRRRRG#. .fRRRRRRRRRRRRRRRRRRv# ..#xRRRRRRRTEEE",
"EEMRRRRRRRRRRRYKIRRRRRK$ .XsRRRRRRRRRRRRRRRRRZ&  .ofRRRRRRRRRMEE",
"EEHRRRRRRRRPk4-&-2hKRRK&  .sRRRRRRRRRRRRRRRRG;   XiTRRRRRRRRRHEE",
"EEJRRRRRRRV,X     .-cRK% .XdRRRRRRRRRRRRRRRL2...X5YRRRRRRRRRRJEE",
"EEURRRRRRV%    ..   +lG#  XhRRRRRRRRRRRRRRY8....1LRRRRRRRRRRRUEE",
"EEURRRRRK;  .o2dg0&. $d@ .oxRRRRRRIIIIIIIPpo   *CIIIRRRRRRRRRUEE",
"EETRRRRRi.  OfTRRRD4..#.  OZRRRRRG1--=---*o  . +-=-1KRRRRRRRRUEE",
"EEURRRRD$...0TRRRRRP1  .  %KRRRRRSO        .  ..   #KRRRRRRRRUEE",
"EEURRRRd...$DRRRRRRRA$ .. ,TRRRRRS+  ..  . .  .    #KRRRRRRRRUEE",
"EETRRRY, . 5RRRRRRRRRi..  9RRRRRRKq658,..  X<785665qIRRRRRRRRUEE",
"EEURRRG$  XkRRRRRRRRRVO...lRRRRRRRRRRK<.. .7YRRRRRRRRRRRRRRRRUEE",
"EEJRRRVO  +ARRRRRRRRRk. .#DRRRRRRRRRY6....2LRRRRRRRRRRRRRRRRRJEE",
"EEHRRRzX  &LRRRRRRRRT3.  2TRRRRRRRRTi....;DRRRRRRRRRRRRRRRRRRHEE",
"EEMRRRjX  >IRRRRRRRRZ#..XhRRRRRRRRRfO.  %ZRRRRRRRRRRRRRRRRRRRMEE",
"EEnRRRk.. ,TRRRRRRRR8.. &KRRRRRRRRx@ . #vRRRRRRRRRRRRRRRRRRRREEE",
"EEEURRvo  >IRRRRRRRB+ ..aRRRRRRRRV%  .OgRRRRRRRRRRRRRRRRRRRRUEEE",
"EEEJRRS#  #GRRRRRRK, . *KRRRRRRRD- ..oaTRRRRRRRRRRRRRRRRRRRRHEEE",
"EEEmRRY1  XfRRRRRI7X. OkRRRRRRRP1.. .7YRRRRRRRRRRRRRRRRRRRRRmEEE",
"EEEEURRko .$vRRRK6.  XqTRRRRRRRZO   o2877778777778778ZRRRRRUEEEE",
"EEEEHRRY4   #5s0*X..X7IRRRRRRRRCO  . .     .        XgRRRRRNEEEE",
"EEEEyTRRK<.   .. . OqYRRRRRRRRRVO .   .   .   .     XgRRRRTEEEEE",
"EEEEEHRRRKi$     O,cTRRRRRRRRRRS-%&&%%&&&%&&%%&&%&&%&zRRRRHEEEEE",
"EEEEEtURRRRDh058abYRRRRRRRRRRRRTKKKKKKKKKKKKKKKKKKKKKTRRRUEEEEEE",
"EEEEEENRRRRRRRRRRRRRRRRRRRRRRRRRRRRRRRRRRRRRRRRRRRRRRRRRRMEEEEEE",
"EEEEEEEJRRRRRRRRRRRRRRRRRRRRRRRRRRRRRRRRRRRRRRRRRRRRRRRRJEEEEEEE",
"EEEEEEEyTRRRRRRRRRRRRRRRRRRRRRRRRRRRRRRRRRRRRRRRRRRRRRRUyEEEEEEE",
"EEEEEEEEmRRRRRRRRRRRRRRRRRRRRRRRRRRRRRRRRRRRRRRRRRRRRRTmEEEEEEEE",
"EEEEEEEEENRRRRRRRRRRRRRRRRRRRRRRRRRRRRRRRRRRRRRRRRRRRRMEEEEEEEEE",
"EEEEEEEEEENRRRRRRRRRRRRRRRRRRRRRRRRRRRRRRRRRRRRRRRRRRNEEEEEEEEEE",
"EEEEEEEEEEENRRRRRRRRRRRRRRRRRRRRRRRRRRRRRRRRRRRRRRRRNEEEEEEEEEEE",
"EEEEEEEEEEEEMRRRRRRRRRRRRRRRRRRRRRRRRRRRRRRRRRRRRRTMEEEEEEEEEEEE",
"EEEEEEEEEEEEEnURRRRRRRRRRRRRRRRRRRRRRRRRRRRRRRRRRUnEEEEEEEEEEEEE",
"EEEEEEEEEEEEEEtHRRRRRRRRRRRRRRRRRRRRRRRRRRRRRRRRHrEEEEEEEEEEEEEE",
"EEEEEEEEEEEEEEEEmURRRRRRRRRRRRRRRRRRRRRRRRRRRRUnEEEEEEEEEEEEEEEE",
"EEEEEEEEEEEEEEEEEeMURRRRRRRRRRRRRRRRRRRRRRRRUMwEEEEEEEEEEEEEEEEE",
"EEEEEEEEEEEEEEEEEEEemJURRRRRRRRRRRRRRRRRRUJmwEEEEEEEEEEEEEEEEEEE",
"EEEEEEEEEEEEEEEEEEEEEEtMHURRRRRRRRRRRTUHMtEEEEEEEEEEEEEEEEEEEEEE",
"EEEEEEEEEEEEEEEEEEEEEEEEEetnMNHHHHNMntwEEEEEEEEEEEEEEEEEEEEEEEEE",
"EEEEEEEEEEEEEEEEEEEEEEEEEEEEEEEEEEEEEEEEEEEEEEEEEEEEEEEEEEEEEEEE",
"EEEEEEEEEEEEEEEEEEEEEEEEEEEEEEEEEEEEEEEEEEEEEEEEEEEEEEEEEEEEEEEE"
};
