/* XPM */
static char *_566394837808[] = {
/* columns rows colors chars-per-pixel */
"29 29 129 2 ",
"   c #4E9A06",
".  c #4E9A07",
"X  c #4F9A07",
"o  c #4F9B08",
"O  c #509B08",
"+  c #509B09",
"@  c #519C0B",
"#  c #529C0C",
"$  c #549D0F",
"%  c #559E10",
"&  c #559E11",
"*  c #569E11",
"=  c #569F12",
"-  c #59A017",
";  c #5AA117",
":  c #5CA21A",
">  c #5DA21B",
",  c #5DA21C",
"<  c #5EA31D",
"1  c #5FA31E",
"2  c #62A522",
"3  c #63A624",
"4  c #65A726",
"5  c #6CAB30",
"6  c #6CAB31",
"7  c #6FAD35",
"8  c #73AE3A",
"9  c #73AF3B",
"0  c #74AF3C",
"q  c #75B03D",
"w  c #76B03F",
"e  c #78B241",
"r  c #7DB549",
"t  c #7FB64C",
"y  c #80B64C",
"u  c #84B952",
"i  c #85B954",
"p  c #8EBF61",
"a  c #90BF63",
"s  c #91C066",
"d  c #92C167",
"f  c #94C269",
"g  c #97C36D",
"h  c #97C36E",
"j  c #A4CA7F",
"k  c #B4B4B4",
"l  c #B6B6B6",
"z  c gray72",
"x  c gray",
"c  c #A5CB81",
"v  c #A7CC83",
"b  c #AED18E",
"n  c #B0D190",
"m  c #B3D394",
"M  c #B8D69B",
"N  c #B9D69C",
"B  c #BBD89F",
"V  c #BBD8A0",
"C  c #BCD8A0",
"Z  c #C8DFB1",
"A  c #CFE3BC",
"S  c #D1E4BF",
"D  c #C3C3C3",
"F  c gray82",
"G  c LightGray",
"H  c gainsboro",
"J  c gray87",
"K  c #DFDFDF",
"L  c #D2E6C0",
"P  c #D3E6C2",
"I  c #D4E6C2",
"U  c #D6E7C6",
"Y  c #D7E8C8",
"T  c #D9E9CA",
"R  c #DBEACC",
"E  c #DFECD2",
"W  c #E0EDD4",
"Q  c #E0EED4",
"!  c #E1EED5",
"~  c #E2EED6",
"^  c #E2EED7",
"/  c #E3EFD7",
"(  c #E1E1E1",
")  c #E6E6E6",
"_  c #E7E7E7",
"`  c gray91",
"'  c gray92",
"]  c #ECECEC",
"[  c gray93",
"{  c #E9F2E1",
"}  c #EAF2E1",
"|  c #EAF3E2",
" . c #EDF4E6",
".. c #EEF5E7",
"X. c #EFF6E9",
"o. c #F0F6EA",
"O. c #F0F6EB",
"+. c #F1F7EC",
"@. c #F2F7EC",
"#. c #F3F8EE",
"$. c #F3F8EF",
"%. c gray95",
"&. c #F4F4F4",
"*. c gray96",
"=. c gray97",
"-. c #F4F9F0",
";. c #F5F9F1",
":. c #F6F9F2",
">. c #F6F9F3",
",. c #F7FAF4",
"<. c #F8FBF5",
"1. c #F8FBF6",
"2. c #F9FBF6",
"3. c #F9FBF7",
"4. c #F9FCF7",
"5. c #F9F9F9",
"6. c gray98",
"7. c #FAFCF8",
"8. c #FBFDFA",
"9. c #FCFDFA",
"0. c #FCFDFB",
"q. c gray99",
"w. c #FDFDFD",
"e. c #FEFEFD",
"r. c #FEFEFE",
"t. c #FEFFFE",
"y. c #FFFFFE",
"u. c white",
"i. c None",
/* pixels */
"i.i.i.i.i.i.i.i.i.i.i.i.i.i.i.i.i.i.i.i.i.i.i.i.i.i.i.i.i.",
"i.i.i.i.i.i.i.i.i.i.&.u.u.u.u.u.u.u.&.i.i.i.i.i.i.i.i.i.i.",
"i.i.i.i.i.i.i.i.u.u.u.u.u.u.u.u.u.u.u.u.u.i.i.i.i.i.i.i.i.",
"i.i.i.i.i.i.&.u.u.u.u.u.u.u.u.u.u.u.u.u.u.u.%.i.i.i.i.i.i.",
"i.i.i.i.i.6.u.u.u.u.u.u.u.u.u.u.u.u.u.u.u.u.u.6.i.i.i.i.i.",
"i.i.i.i.6.u.u.u.u.u.u.u.u.u.u.u.u.u.u.u.u.u.u.u.6.i.i.i.i.",
"i.i.i.[ u.j 1 % ; f 1.u.u.u.u.u.u.u.u.u.u.u.u.u.u.[ i.i.i.",
"i.i.i.u.u.w # >     % >.u.u.u.u.u.u.u.u.u.u.u.u.u.u.i.i.i.",
"i.i.6.u.u.#.u.u.u.r   5 u.u.1.R T R R T R R R R 9.u.6.i.i.",
"i.i.u.u.u.u.u.u.u.8.@   ,.u.^       o     o     X.u.u.i.i.",
"i.` u.u.u.u.u.u.u.u.w   S u.8.W W W E ^ W B o   >.u.u.) i.",
"i.6.u.u.u.u.4.1.u.u.s   M u.u.u.u.u.u.u.o.O   A u.u.u.6.i.",
"i.u.u.u. .>     - E s   B u.u.u.u.u.u.1.$   n u.u.u.u.u.i.",
"i.u.u.8.%   c T r O w   I u.u.^ S S L 3   7 S ^ u.u.u.u.i.",
"i.u.u.b   g u.u.u.r     O.u.u.u               p u.u.u.u.i.",
"i.u.u.1   #.u.u.u.#.    u.u.u.X.| i   > | | | O.u.u.u.u.i.",
"i.u.u.  # u.u.u.u.U   w u.u.u.u.M   $ >.u.u.u.u.u.u.u.u.i.",
"i.&.u.  % u.u.u.u.4   ^ u.u.u.U     | u.u.u.u.u.u.u.u.&.i.",
"i.G u.> o 8.u.u.B   5 u.u.u. .O   I u.u.u.u.u.u.u.u.u.G i.",
"i.i.u.Z   0 ^ c   $ >.u.u.u.s   @ 2 2 2 2 2 2 2 +.u.u.i.i.",
"i.i.[ u.m @     8 6.u.u.u.u.g = - - = ; ; = - - O.u.` i.i.",
"i.i.i.u.u.u.1.u.u.u.u.u.u.u.u.u.u.u.u.u.u.u.u.u.u.u.i.i.i.",
"i.i.i.D u.u.u.u.u.u.u.u.u.u.u.u.u.u.u.u.u.u.u.u.u.x i.i.i.",
"i.i.i.i.J u.u.u.u.u.u.u.u.u.u.u.u.u.u.u.u.u.u.u.J i.i.i.i.",
"i.i.i.i.i.J u.u.u.u.u.u.u.u.u.u.u.u.u.u.u.u.u.J i.i.i.i.i.",
"i.i.i.i.i.i.z u.u.u.u.u.u.u.u.u.u.u.u.u.u.u.l i.i.i.i.i.i.",
"i.i.i.i.i.i.i.i.( u.u.u.u.u.u.u.u.u.u.u.J i.i.i.i.i.i.i.i.",
"i.i.i.i.i.i.i.i.i.i.l ) 6.u.u.u.6.) l i.i.i.i.i.i.i.i.i.i.",
"i.i.i.i.i.i.i.i.i.i.i.i.i.i.i.i.i.i.i.i.i.i.i.i.i.i.i.i.i."
};
