/* XPM */
static char *diaz32[] = {
/* columns rows colors chars-per-pixel */
"32 32 205 2 ",
"   c #489700",
".  c #499700",
"X  c #4A9700",
"o  c #4A9800",
"O  c #4A9801",
"+  c #4B9801",
"@  c #4B9802",
"#  c #4C9903",
"$  c #4D9904",
"%  c #4D9905",
"&  c #4E9A06",
"*  c #4F9A07",
"=  c #4F9B07",
"-  c #4F9B08",
";  c #509B08",
":  c #509B09",
">  c #519C0B",
",  c #529C0C",
"<  c #539D0D",
"1  c #549D0F",
"2  c #559E0F",
"3  c #559E11",
"4  c #569F11",
"5  c #579F13",
"6  c #589F13",
"7  c #59A015",
"8  c #59A016",
"9  c #5BA118",
"0  c #5CA21A",
"q  c #5DA31B",
"w  c #60A41F",
"e  c #61A521",
"r  c #62A522",
"t  c #65A726",
"y  c #66A828",
"u  c #68A92A",
"i  c #68A92B",
"p  c #69A92C",
"a  c #6AAA2D",
"s  c #6BAB2F",
"d  c #6CAB2F",
"f  c #6CAB30",
"g  c #6EAC33",
"h  c #6FAD34",
"j  c #6FAD35",
"k  c #72AE38",
"l  c #74B03C",
"z  c #75B03C",
"x  c #78B241",
"c  c #79B342",
"v  c #79B343",
"b  c #7AB344",
"n  c #7BB345",
"m  c #7BB445",
"M  c #7BB446",
"N  c #7EB64A",
"B  c #7FB64B",
"V  c #80B64C",
"C  c #80B74D",
"Z  c #81B74E",
"A  c #83B851",
"S  c #84B952",
"D  c #85B953",
"F  c #86BA55",
"G  c #88BB57",
"H  c #88BB58",
"J  c #89BC59",
"K  c #8ABC5A",
"L  c #8BBD5C",
"P  c #8FBF62",
"I  c #90C063",
"U  c #92C165",
"Y  c #92C166",
"T  c #93C167",
"R  c #95C36A",
"E  c #97C36C",
"W  c #97C46C",
"Q  c #97C46D",
"!  c #98C46F",
"~  c #9AC571",
"^  c #9BC672",
"/  c #9BC673",
"(  c #9EC776",
")  c #A0C97A",
"_  c #A3CB7D",
"`  c #A4CB7E",
"'  c #BCBCBC",
"]  c gray74",
"[  c #A5CC81",
"{  c #A7CD83",
"}  c #A7CD84",
"|  c #A8CD85",
" . c #ABCF88",
".. c #ABCF89",
"X. c #AFD18F",
"o. c #B0D28F",
"O. c #B1D291",
"+. c #B1D392",
"@. c #B2D393",
"#. c #B6D598",
"$. c #B6D699",
"%. c #B9D79D",
"&. c #BBD89F",
"*. c #BCD9A1",
"=. c #BEDAA3",
"-. c #BEDAA4",
";. c #BFDBA5",
":. c #C0DBA6",
">. c #C2DCA9",
",. c #C5DEAD",
"<. c #C7DFB0",
"1. c #C8E0B2",
"2. c #CBE1B6",
"3. c #CCE2B7",
"4. c #CDE2B8",
"5. c #CEE3BA",
"6. c #CEE3BB",
"7. c #D0E4BD",
"8. c #D1E5BE",
"9. c #C5C5C5",
"0. c gray78",
"q. c gray79",
"w. c #CACACA",
"e. c gray81",
"r. c LightGray",
"t. c gray83",
"y. c #D7D7D7",
"u. c #D8D8D8",
"i. c gray85",
"p. c gray86",
"a. c gainsboro",
"s. c #D5E7C3",
"d. c #D7E8C7",
"f. c #D9E9CA",
"g. c #DBEACC",
"h. c #DCEBCE",
"j. c #DDEBCF",
"k. c #E0EDD3",
"l. c #E2EFD7",
"z. c #E3EFD7",
"x. c #E5F1DB",
"c. c #E6F1DB",
"v. c #E7F2DE",
"b. c #E8F2DE",
"n. c gray88",
"m. c #E2E2E2",
"M. c #E4E4E4",
"N. c #E9E9E9",
"B. c #EAEAEA",
"V. c gray92",
"C. c #ECECEC",
"Z. c gray93",
"A. c #EEEEEE",
"S. c #EFEFEF",
"D. c #E9F3E1",
"F. c #EAF3E1",
"G. c #EAF3E2",
"H. c #ECF4E4",
"J. c #EDF5E6",
"K. c #EEF5E7",
"L. c #EEF6E8",
"P. c #EFF6E8",
"I. c #EFF6E9",
"U. c #F0F6E9",
"Y. c #F0F6EA",
"T. c #F0F7EA",
"R. c #F1F7EB",
"E. c #F1F7EC",
"W. c #F2F8ED",
"Q. c #F3F8EE",
"!. c gray94",
"~. c #F1F1F1",
"^. c gray95",
"/. c #F3F3F3",
"(. c #F4F4F4",
"). c #F4F4F5",
"_. c gray96",
"`. c #F6F6F6",
"'. c gray97",
"]. c #F6FAF2",
"[. c #F6FAF3",
"{. c #F7FBF4",
"}. c #F8FBF5",
"|. c #F9FBF6",
" X c #F9FCF7",
".X c #F8F8F8",
"XX c #F9F9F9",
"oX c gray98",
"OX c #FBFBFB",
"+X c #FAFCF8",
"@X c #FAFCF9",
"#X c #FBFDFA",
"$X c #FCFDFA",
"%X c #FCFDFB",
"&X c #FCFEFB",
"*X c gray99",
"=X c #FDFDFD",
"-X c #FDFEFC",
";X c #FDFEFD",
":X c #FEFEFE",
">X c #FEFFFE",
",X c #FFFFFE",
"<X c #FFFEFF",
"1X c gray100",
"2X c None",
/* pixels */
"2X2X2X2X2X2X2X2X2X2X2X2X2X2X2X2X2X2X2X2X2X2X2X2X2X2X2X2X2X2X2X2X",
"2X2X2X2X2X2X2X2X2X2X2X2XOX=X=X=X=X=XOXOX2X2X2X2X2X2X2X2X2X2X2X2X",
"2X2X2X2X2X2X2X2X2X'.=X=X=X=X=X=X=X=X=X=X=X=X'.2X2X2X2X2X2X2X2X2X",
"2X2X2X2X2X2X2X!.=X=X=X=X=X=X=X=X=X=X=X=X=X=X=X=X!.2X2X2X2X2X2X2X",
"2X2X2X2X2X2X'.=X=X=X=X=X=X=X=X=X=X=X=X=X=X=X=X=X=X'.2X2X2X2X2X2X",
"2X2X2X2X2X'.=X=X=X=X=X=X=X=X=X=X=X=X=X=X=X=X=X=X=X=X'.2X2X2X2X2X",
"2X2X2X2X'.&XF.s.3.d.R.=X=X=X=X=X=X=X=X=X=X=X=X=X=X=X=X'.2X2X2X2X",
"2X2X2XV.=Xz.f < > 4 k ;.=X=X=X=X=X=X=X=X=X=X=X=X=X=X=X=XC.2X2X2X",
"2X2X2XOX=Xl.c L I h % 4 %.=X=X=X=X=X=X=X=X=X=X=X=X=X=X=X=X2X2X2X",
"2X2X!.=X=X#XW.=X=XI.R % a v.=X=X1.@.@.@.@.@.@.@.@.@.5.=X=XC.2X2X",
"2X2XOX=X=X=X=X=X=X=XF.d % %.=X}.B # = = > = % > % o L =X=XOX2X2X",
"2X2X=X=X=X=X=X=X=X=X=XT o ! =X=X8.:.:.:.:.:.>.[ 9 o ^ =X=X=X2X2X",
"2X!.=X=X=X=X}.I.].=X=X| o L =X=X=X=X=X=X=X=XW.D % c F.=X=X=XC.2X",
"2X'.=X=X=X5.A i f ( H. .  D =X=X=X=X=X=X=X].T # d j.=X=X=X=X'.2X",
"2X'.=X=X1.0 > m A 9 B I   I =X=X=XR.R.R.H._ % 9 -.W.=X=X=X=X'.2X",
"2XOX=XR.z = } }.&X5.y 2 # ` =X=XF.c i s a 2 o 2 i M I.=X=X=XOX2X",
"2X'.=X,.> f R.=X=X=X$.% > :.=X=XH.G x 0 # < z M x L R.=X=X=XOX2X",
"2XOX=X) o ! =X=X=X=Xf.9 0 l.=X=X=X#X5.e % / W.}.}.}.=X=X=X=X'.2X",
"2X!.=XI o @.=X=X=X=Xo.# A ].=X=X=Xz.k o L W.=X=X=X=X=X=X=X=XC.2X",
"2XM.=XT o $.=X=X=XH.h = *.=X=X=XH.C o m F.=X=X=X=X=X=X=X=X=Xm.2X",
"2X2X=X@.o Q =X=X}.! o A ].=X=X{.T % a d.#X{.}.}.}.}.#X=X=XOX2X2X",
"2X2X'.x.i 9  .2.T - s f.=X=X=Xx.q o q m b x b b c x | =X=X'.2X2X",
"2X2Xy.=X8.z 2 2 4 D h.=X=X=X=Xv.z u u y t t t t y e ^ =X=Xy.2X2X",
"2X2X2X!.=XI.7.,.f.}.=X=X=X=X=X=XH.H.H.H.H.H.H.H.H.H.].=X!.2X2X2X",
"2X2X2Xw.OX=X=X=X=X=X=X=X=X=X=X=X=X=X=X=X=X=X=X=X=X=X=XOX9.2X2X2X",
"2X2X2X2Xy.=X=X=X=X=X=X=X=X=X=X=X=X=X=X=X=X=X=X=X=X=X=Xy.2X2X2X2X",
"2X2X2X2X2Xi.=X=X=X=X=X=X=X=X=X=X=X=X=X=X=X=X=X=X=X=Xi.2X2X2X2X2X",
"2X2X2X2X2X2Xy.=X=X=X=X=X=X=X=X=X=X=X=X=X=X=X=X=XOXy.2X2X2X2X2X2X",
"2X2X2X2X2X2X2X] C.=X=X=X=X=X=X=X=X=X=X=X=X=X=XC.] 2X2X2X2X2X2X2X",
"2X2X2X2X2X2X2X2X2Xw.C.OX=X=X=X=X=X=X=X=XOXV.w.2X2X2X2X2X2X2X2X2X",
"2X2X2X2X2X2X2X2X2X2X2X2Xr.m.V.C.C.V.m.r.2X2X2X2X2X2X2X2X2X2X2X2X",
"2X2X2X2X2X2X2X2X2X2X2X2X2X2X2X2X2X2X2X2X2X2X2X2X2X2X2X2X2X2X2X2X"
};
