/* XPM */
static char *_566394883257[] = {
/* columns rows colors chars-per-pixel */
"119 119 79 1 ",
"  c #4E9A06",
". c #4F9B08",
"X c #519C0B",
"o c #569E12",
"O c #589F14",
"+ c #59A016",
"@ c #5CA21A",
"# c #60A41F",
"$ c #62A523",
"% c #66A728",
"& c #67A829",
"* c #6AA92D",
"= c #6EAC33",
"- c #71AE37",
"; c #73AF3B",
": c #75B03E",
"> c #77B140",
", c #7BB345",
"< c #7EB54A",
"1 c #80B64D",
"2 c #85B953",
"3 c #8ABC5B",
"4 c #82B750",
"5 c #8EBE61",
"6 c #90BF64",
"7 c #92C065",
"8 c #95C26A",
"9 c #98C46F",
"0 c #9BC673",
"q c #9FC877",
"w c #9FC778",
"e c #9FC879",
"r c #A2C97C",
"t c #8D8D8D",
"y c #939393",
"u c #9C9C9C",
"i c #A3A3A3",
"p c #ABABAB",
"a c #B4B4B4",
"s c #BCBCBC",
"d c #A5CB81",
"f c #A9CD86",
"g c #ABCE89",
"h c #AED08D",
"j c #B3D494",
"k c #B6D599",
"l c #B9D69D",
"z c #BBD89F",
"x c #BED9A4",
"c c #C0DBA7",
"v c #C4DDAC",
"b c #C7DFB1",
"n c #C8DFB2",
"m c #CAE0B5",
"M c #CEE2BA",
"N c #D0E4BE",
"B c #C3C3C3",
"V c #CBCBCB",
"C c #D3D3D3",
"Z c #DCDCDC",
"A c #D4E6C2",
"S c #D7E8C7",
"D c #DAEACC",
"F c #DEECD2",
"G c #E1EED6",
"H c #E4EFD9",
"J c #E6F1DC",
"K c #E8F1DF",
"L c #E4E4E4",
"P c #ECECEC",
"I c #EBF4E4",
"U c #EFF5E9",
"Y c #F2F7EC",
"T c #F3F8EE",
"R c #F4F4F4",
"E c #F6FAF3",
"W c #F8FBF6",
"Q c #FFFFFF",
"! c None",
/* pixels */
"!!!!!!!!!!!!!!!!!!!!!!!!!!!!!!!!!!!!!!!!!!!!!!!!!!!!!!!!!!!!!!!!!!!!!!!!!!!!!!!!!!!!!!!!!!!!!!!!!!!!!!!!!!!!!!!!!!!!!!!",
"!!!!!!!!!!!!!!!!!!!!!!!!!!!!!!!!!!!!!!!!!!!!!!!!!!!!!!!!!!!!!!!!!!!!!!!!!!!!!!!!!!!!!!!!!!!!!!!!!!!!!!!!!!!!!!!!!!!!!!!",
"!!!!!!!!!!!!!!!!!!!!!!!!!!!!!!!!!!!!!!!!!!!!!!!!!!!!!!!!!!!!!!!!!!!!!!!!!!!!!!!!!!!!!!!!!!!!!!!!!!!!!!!!!!!!!!!!!!!!!!!",
"!!!!!!!!!!!!!!!!!!!!!!!!!!!!!!!!!!!!!!!!!!!!!!!!!!!!!PPPRRRRRPRRPP!!!!!!!!!!!!!!!!!!!!!!!!!!!!!!!!!!!!!!!!!!!!!!!!!!!!!",
"!!!!!!!!!!!!!!!!!!!!!!!!!!!!!!!!!!!!!!!!!!!!!!!PRRWWWWQQQQQQQQQQQWQWWRPP!!!!!!!!!!!!!!!!!!!!!!!!!!!!!!!!!!!!!!!!!!!!!!!",
"!!!!!!!!!!!!!!!!!!!!!!!!!!!!!!!!!!!!!!!!!!!PRWWQQQQQQQQQQQQQQQQQQQQQQQQQWWRL!!!!!!!!!!!!!!!!!!!!!!!!!!!!!!!!!!!!!!!!!!!",
"!!!!!!!!!!!!!!!!!!!!!!!!!!!!!!!!!!!!!!!!PRWQQQQQQQQQQQQQQQQQQQQQQQQQQQQQQQQQWRP!!!!!!!!!!!!!!!!!!!!!!!!!!!!!!!!!!!!!!!!",
"!!!!!!!!!!!!!!!!!!!!!!!!!!!!!!!!!!!!!!RWWQQQQQQQQQQQQQQQQQQQQQQQQQQQQQQQQQQQQQWWR!!!!!!!!!!!!!!!!!!!!!!!!!!!!!!!!!!!!!!",
"!!!!!!!!!!!!!!!!!!!!!!!!!!!!!!!!!!!PRWQQQQQQQQQQQQQQQQQQQQQQQQQQQQQQQQQQQQQQQQQQQWRP!!!!!!!!!!!!!!!!!!!!!!!!!!!!!!!!!!!",
"!!!!!!!!!!!!!!!!!!!!!!!!!!!!!!!!!PWWQQQQQQQQQQQQQQQQQQQQQQQQQQQQQQQQQQQQQQQQQQQQQQQQRL!!!!!!!!!!!!!!!!!!!!!!!!!!!!!!!!!",
"!!!!!!!!!!!!!!!!!!!!!!!!!!!!!!!!RQQQQQQQQQQQQQQQQQQQQQQQQQQQQQQQQQQQQQQQQQQQQQQQQQQQQWW!!!!!!!!!!!!!!!!!!!!!!!!!!!!!!!!",
"!!!!!!!!!!!!!!!!!!!!!!!!!!!!!!PWQQQQQQQQQQQQQQQQQQQQQQQQQQQQQQQQQQQQQQQQQQQQQQQQQQQQQQQWR!!!!!!!!!!!!!!!!!!!!!!!!!!!!!!",
"!!!!!!!!!!!!!!!!!!!!!!!!!!!!LWQQQQQQQQQQQQQQQQQQQQQQQQQQQQQQQQQQQQQQQQQQQQQQQQQQQQQQQQQQQR!!!!!!!!!!!!!!!!!!!!!!!!!!!!!",
"!!!!!!!!!!!!!!!!!!!!!!!!!!!PQQQQQQQQQQQQQQQQQQQQQQQQQQQQQQQQQQQQQQQQQQQQQQQQQQQQQQQQQQQQQQQP!!!!!!!!!!!!!!!!!!!!!!!!!!!",
"!!!!!!!!!!!!!!!!!!!!!!!!!!WQQQQQQQQQQQQQQQQQQQQQQQQQQQQQQQQQQQQQQQQQQQQQQQQQQQQQQQQQQQQQQQQQR!!!!!!!!!!!!!!!!!!!!!!!!!!",
"!!!!!!!!!!!!!!!!!!!!!!!!LWQQQQQQQQQQQQQQQQQQQQQQQQQQQQQQQQQQQQQQQQQQQQQQQQQQQQQQQQQQQQQQQQQQQWL!!!!!!!!!!!!!!!!!!!!!!!!",
"!!!!!!!!!!!!!!!!!!!!!!!PWQQQQQQQQQQQQQQQQQQQQQQQQQQQQQQQQQQQQQQQQQQQQQQQQQQQQQQQQQQQQQQQQQQQQQWP!!!!!!!!!!!!!!!!!!!!!!!",
"!!!!!!!!!!!!!!!!!!!!!!PQQQQQQQQQQQQQQQQQQQQQQQQQQQQQQQQQQQQQQQQQQQQQQQQQQQQQQQQQQQQQQQQQQQQQQQQQR!!!!!!!!!!!!!!!!!!!!!!",
"!!!!!!!!!!!!!!!!!!!!!PQQQQQQQQQQQQQQQQQQQQQQQQQQQQQQQQQQQQQQQQQQQQQQQQQQQQQQQQQQQQQQQQQQQQQQQQQQWP!!!!!!!!!!!!!!!!!!!!!",
"!!!!!!!!!!!!!!!!!!!!RQQQQQQQQQQQQQQQQQQQQQQQQQQQQQQQQQQQQQQQQQQQQQQQQQQQQQQQQQQQQQQQQQQQQQQQQQQQQQR!!!!!!!!!!!!!!!!!!!!",
"!!!!!!!!!!!!!!!!!!!RQQQQQQQQQQQQQQQQQQQQQQQQQQQQQQQQQQQQQQQQQQQQQQQQQQQQQQQQQQQQQQQQQQQQQQQQQQQQQQWR!!!!!!!!!!!!!!!!!!!",
"!!!!!!!!!!!!!!!!!!PQQQQQQQQQQQQQQQQQQQQQQQQQQQQQQQQQQQQQQQQQQQQQQQQQQQQQQQQQQQQQQQQQQQQQQQQQQQQQQQQQP!!!!!!!!!!!!!!!!!!",
"!!!!!!!!!!!!!!!!!PWQQQQQQQQQQQQQQQQQQQQQQQQQQQQQQQQQQQQQQQQQQQQQQQQQQQQQQQQQQQQQQQQQQQQQQQQQQQQQQQQQQP!!!!!!!!!!!!!!!!!",
"!!!!!!!!!!!!!!!!PQQQQQQQQQQQQQQQQQQQQQQQQQQQQQQQQQQQQQQQQQQQQQQQQQQQQQQQQQQQQQQQQQQQQQQQQQQQQQQQQQQQQWP!!!!!!!!!!!!!!!!",
"!!!!!!!!!!!!!!!LWQQQQQQWWWRYIKJJHIIYEWQQQQQQQQQQQQQQQQQQQQQQQQQQQQQQQQQQQQQQQQQQQQQQQQQQQQQQQQQQQQQQQQW!!!!!!!!!!!!!!!!",
"!!!!!!!!!!!!!!!WQQQQQWIFAcjr734<128dzMGYWQQQQQQQQQQQQQQQQQQQQQQQQQQQQQQQQQQQQQQQQQQQQQQQQQQQQQQQQQQQQQQR!!!!!!!!!!!!!!!",
"!!!!!!!!!!!!!!PQQQQQQHg2=#XXXXX XXXX+-5jSYWQQQQQQQQQQQQQQQQQQQQQQQQQQQQQQQQQQQQQQQQQQQQQQQQQQQQQQQQQQQQQP!!!!!!!!!!!!!!",
"!!!!!!!!!!!!!LWQQQQQQm=..  .          X#2jDEQQQQQQQQQQQQQQQQQQQQQQQQQQQQQQQQQQQQQQQQQQQQQQQQQQQQQQQQQQQQQL!!!!!!!!!!!!!",
"!!!!!!!!!!!!!WQQQQQQQn=                 X%8MYQQQQQQQQQQQQQQQQQQQQQQQQQQQQQQQQQQQQQQQQQQQQQQQQQQQQQQQQQQQQW!!!!!!!!!!!!!",
"!!!!!!!!!!!!PQQQQQQQQn=.                  @2vYQQQQQQQQQQQQQQQQQQQQQQQQQQQQQQQQQQQQQQQQQQQQQQQQQQQQQQQQQQQQP!!!!!!!!!!!!",
"!!!!!!!!!!!LQQQQQQQQQn=.                   O1nEQQQQQQQQQQQQQQQQQQQQQQQQQQQQQQQQQQQQQQQQQQQQQQQQQQQQQQQQQQQWL!!!!!!!!!!!",
"!!!!!!!!!!!WQQQQQQQQQn=..X+%->,:&+X         O3SWQQQQQQQQQQQQQQQQQQQQQQQQQQQQQQQQQQQQQQQQQQQQQQQQQQQQQQQQQQQR!!!!!!!!!!!",
"!!!!!!!!!!PQQQQQQQQQQm-#>8hxmNNMcj9;o.      .@9IQQQQQQQQQQQQQQQQQQQQQQQQQQQQQQQQQQQQQQQQQQQQQQQQQQQQQQQQQQQWP!!!!!!!!!!",
"!!!!!!!!!!WQQQQQQQQQQDhzAHTEWWWWEEJMr*X      .%kEQQQQQQQQQQQQQQQQQQQQQQQQQQQQQQQQQQQQQQQQQQQQQQQQQQQQQQQQQQQW!!!!!!!!!!",
"!!!!!!!!!PQQQQQQQQQQQEUTWQQQQQQQQQQEIx>X.     X,FQQQQQQQQQQQQWWWWWWWWWWWWWWWWWWWWWWWWWWWWWWWWWWWWWWQQQQQQQQQQL!!!!!!!!!",
"!!!!!!!!!WQQQQQQQQQQQQQQQQQQQQQQQQQQWTc>.      @gEQQQQQQQQQWAkjjjjjjjjjjjjjjjjjjjjjjjjjjjjjjjjjjjjxGQQQQQQQQQW!!!!!!!!!",
"!!!!!!!!LQQQQQQQQQQQQQQQQQQQQQQQQQQQQQUj*.     X>HQQQQQQQQQTq@+++++++++++++++++++++++++++++++++O++:xWQQQQQQQQQL!!!!!!!!",
"!!!!!!!!WQQQQQQQQQQQQQQQQQQQQQQQQQQQQQQG9@      $zWQQQQQQQQY9X                                  .X*zWQQQQQQQQQR!!!!!!!!",
"!!!!!!!LWQQQQQQQQQQQQQQQQQQQQQQQQQQQQQQEb>.     o8UQQQQQQQQY0X                                   .*zWQQQQQQQQQWZ!!!!!!!",
"!!!!!!!PWQQQQQQQQQQQQQQQQQQQQQQQQQQQQQQQG0@     X>DQQQQQQQQT9X                                    *zWQQQQQQQQQQP!!!!!!!",
"!!!!!!!WQQQQQQQQQQQQQQQQQQQQQQQQQQQQQQQQEz*     .=cWQQQQQQQT9X .   ...  ......   ..... .         X*lWQQQQQQQQQQR!!!!!!!",
"!!!!!!LQQQQQQQQQQQQQQQQQQQQQQQQQQQQQQQQQWA<X     $gEQQQQQQQEh:---:-------------:----:----$X      .*xWQQQQQQQQQQWL!!!!!!",
"!!!!!!PQQQQQQQQQQQQQQQQQQQQQQQQQQQQQQQQQQG7O     O0TQQQQQQQWFvvvvvvvvvvvvvvvvvvvvvvvvvvvj2+      X=xWQQQQQQQQQQQP!!!!!!",
"!!!!!!RQQQQQQQQQQQQQQQQQQQQQQQQQQQQQQQQQQUr@     o3KQQQQQQQQWWWWWWWEWWWWWWEWWWWEWWWWEEEIk;X      O5DQQQQQQQQQQQQR!!!!!!",
"!!!!!ZWQQQQQQQQQQQQQQQQQQQQQQQQQQQQQQQQQQTh$     X2FQQQQQQQQQQQQQQQQQQQQQQQQQQQQQQQQQQEn1+      X1mRQQQQQQQQQQQQWZ!!!!!",
"!!!!!LQQQQQQQQQQQQQQQQQQQQQQQQQQQQQQQQQQQWz%     X<SQQQQQQQQQQQQQQQQQQQQQQQQQQQQQQQQQEA3+.    .X;cTQQQQQQQQQQQQQQL!!!!!",
"!!!!!PQQQQQQQQQQQQQQQQQQQQQQQQQQQQQQQQQQQWc*    .X>AQQQQQQQQQQQQQQQQQQQQQQQQQQQQQQQQWF9+.     .&kTQQQQQQQQQQQQQQQP!!!!!",
"!!!!!RQQQQQQQQQQQQQQQQQQQQWWEEWQQQQQQQQQQQv=    ..>mQQQQQQQQQQQQQQQQQQQQQQQQQQQQQQQQKd@.      #gUQQQQQQQQQQQQQQQQR!!!!!",
"!!!!CWQQQQQQQQQQQQQQQQWTHSmzjjznDKTWQQQQQQb=     X;nQQQQQQQQQQQQQQQQQQQQQQQQQQQQQQQUh$.     X@qKQQQQQQQQQQQQQQQQQRV!!!!",
"!!!!ZWQQQQQQQQQQQQQQWIAg2&OOXooO*3jSUWQQQQb-     .;MQQQQQQQQQQQQQQQQQQQQQQQQQQQQQQUz*.      @8GQQQQQQQQQQQQQQQQQQWZ!!!!",
"!!!!LQQQQQQQQQQQQQQESf;OX X     .X@,gDEQQWb=.    X>MQQQQQQQQQQQQQQQQQQQQQQQQQQQQQYv-X.     +3SWQQQQQQQQQQQQQQQQQQQL!!!!",
"!!!!LQQQQQQQQQQQQWYn3$X         .. X$6nTQQc=     X,AQQQQQQQQQQQQQQQQQQQQQQQQQQQQTm,X      +2mRQQQQQQQQQQQQQQQQQQQQL!!!!",
"!!!!PQQQQQQQQQQQQYv1O.        .      O1cUWc*     X<SQQQQQQQQQQQQQQQQQQQQQQQQQQQWN3O      X,vYQQQQQQQQQQQQQQQQQQQQQP!!!!",
"!!!!RQQQQQQQQQQQEm1O.      .XOOo..    o1vUz$    .X2GQQQQQQQQQQQQQQQQQQQQQQQQQQQS7@      X-kIQQQQQQQQQQQQQQQQQQQQQQP!!!!",
"!!!!RQQQQQQQQQQWS7+.     X$,60q82*X.  XO3ng$    .o3HQQQQQQQQQQQQQQQQQQQQQQQQQWG0#.    .X*hKQQQQQQQQQQQQQQQQQQQQQQQR!!!!",
"!!!VWQQQQQQQQQQIf%.   ..X>gNHIKJSx7%X  X$75@     O8UQQQQQQQQQQEGAAAAAAAAAAAAAmq&X     .O1kNNNAASGQQQQQQQQQQQQQQQQQR!!!!",
"!!!VRQQQQQQQQQEm,X     X<cIWQQQQQTFh-X  X$%XX    @rTQQQQQQQQQQHd<,,<<,<<,<,<<;$X.      X%>,<<,<<rWQQQQQQQQQQQQQQQQRB!!!",
"!!!CWQQQQQQQQQJr+     X;nTQQQQQQQQWIz=X  XX.    .$jWQQQQQQQQQQD3oXXXXXXXXXXXXX.        .XXXXXXXo2EQQQQQQQQQQQQQQQQRV!!!",
"!!!VRQQQQQQQQEm:.     @kTQQQQQQQQQQQYj$.        .*cQQQQQQQQQQWD3.       X                   .  X4WQQQQQQQQQQQQQQQQWV!!!",
"!!!VWQQQQQQQQUfO     X3JQQQQQQQQQQQQWHrO        X;AQQQQQQQQQQQD2.                          .   X4EQQQQQQQQQQQQQQQQRV!!!",
"!!!VWQQQQQQQWD1X     $cWQQQQQQQQQQQQQWA1X       X4IQQQQQQQQQQWD3.    ..                 XX X ..X4EQQQQQQQQQQQQQQQQWV!!!",
"!!!VRQQQQQQQWc%.    .4FWQQQQQQQQQQQQQQUh%       O0TQQQQQQQQQQQF7#OO#@@@OX        XO@@@@@OOO@@@@#7EQQQQQQQQQQQQQQQQRB!!!",
"!!!VWQQQQQQQYdX.    ofUQQQQQQQQQQQQQQQWS2o      #jEQQQQQQQQQQWUxrrrrrrr5$X       $3rrrrrrrrrrrrrxWQQQQQQQQQQQQQQQQRB!!!",
"!!!!RQQQQQQQJ2X    .%cWQQQQQQQQQQQQQQQQUg@     .*MWQQQQQQQQQQQQEYTYTTTHf$       @9DYYTTTTTTTTTTTEQQQQQQQQQQQQQQQQQR!!!!",
"!!!!RQQQQQQQS-     .<SWQQQQQQQQQQQQQQQQTj%     X,IQQQQQQQQQQQQQQQQQQQTx-X      O5SWQQQQQQQQQQQQQQQQQQQQQQQQQQQQQQQP!!!!",
"!!!!PQQQQQQWn$     X9HQQQQQQQQQQQQQQQQQUd@     X0TQQQQQQQQQQQQQQQQQQEv>X      o3MWQQQQQQQQQQQQQQQQQQQQQQQQQQQQQQQQP!!!!",
"!!!!LQQQQQQEz@     OgYQQQQQQQQQQQQQQQQWD3X     @xWQQQQQQQQQQQQQQQQQEM4o      o<vTQQQQQQQQQQQQQQQQQQQQQQQQQQQQQQQQQL!!!!",
"!!!!LWQQQQQEho     $kEQQQQQQQQQQQQQQQQEv=.    X:FQQQQQQQQQQQQQQQQQWS5@X     X:xIWQQQQQQQQQQQQQQQQQQQQQQQQQQQQQQQQWZ!!!!",
"!!!!CWQQQQQEro     =cWQQQQQQQQQQQQQQQQIr@     o0TQQQQQQQQQQQQQQQQQD9$.     X*jKQQQQQQQQQQQQQQQQQQQQQQQQQQQQQQQQQQWC!!!!",
"!!!!CRQQQQQTeX     :MWQQQQQQQQQQQQQQQWA<.     %vWQQQQQQQQQQQQQQQQHd%.     .$dJWQQQQQQQQQQQQQQQQQQQQQQQQQQQQQQQQQQRV!!!!",
"!!!!BPQQQQQTqX     ,MWQQQQQQQQQQQQQQQUj@.    X2JQQQQQQQQQQQQQQQQIg*X     .@9GWQQQQQQQQQQQQQQQQQQQQQQQQQQQQQQQQQQQP!!!!!",
"!!!!!PQQQQQEro     ,AWQQQQQQQQQQQQQQWS<.     @jRQQQQQQQQQQQQQQQYx;X     .+3SQQQQQQQQQQQQQQQQQQQQQQQQQQQQQQQQQQQQQP!!!!!",
"!!!!!ZQQQQQRfo    .,NWQQQQQQQQQQQQQQUgO     X<DWQQQQQQQQQQQQQQTn,X.     o4MWQQQQQQQQQQQQQQQQQQQQQQQQQQQQQQQQQQQQWZ!!!!!",
"!!!!!CWQQQQEz+     ;mWQQQQQQQQQQQQQWN;.     @gYQQQQQQQQQQQQQQEN3O      X>cEQQQQQQQQQQQQQQQQQQQQQQQQQQQQQQQQQQQQQRV!!!!!",
"!!!!!BPQQQQWn$     &cEQQQQQQQQQQQQQH9o    .X4SWQQQQQQQQQQQQQWD7@      X=zTQQQQQQQQQQQQQQQQQQQQQQQQQQQQQQQQQQQQQQRs!!!!!",
"!!!!!!LQQQQQD;X   .+gYQQQQQQQQQQQQUg$     .&jUQQQQQQQQQQQQQQGq@      X&jUQQQQQQQQQQQQQQQQQQQQQQQQQQQQQQQQQQQQQQQL!!!!!!",
"!!!!!!ZWQQQQI5X    X3FWQQQQQQQQQQUz-.    .+8DWQQQQQQQQQQQQQJd$.     X%dIQQQQQQQQQQQQQQQQQQQQQQQQQQQQQQQQQQQQQQQRC!!!!!!",
"!!!!!!BRQQQQRk$    .%zTQQQQQQQQQTc>X     X,bEQQQQQQQQQQQQQEz*X      @9FWWWWWWWWWWWWWWWWWWWWWWWWWWWWQQQQQQQQQQQQPB!!!!!!",
"!!!!!!!LQQQQWS1X    X1MEQQQQQQQUx,o     X=jIQQQQQQQQQQQQQQU3X       &rxvvvvvvvvvvvvvvvvvvvcvvvvvvvMJQQQQQQQQQQQL!!!!!!!",
"!!!!!!!CWQQQQUh$     O2cUWQWQEFg>o.   ..%rJWQQQQQQQQQQQQQQU<X       O==;----;-----;;-----;----;;--3bWQQQQQQQQQWC!!!!!!!",
"!!!!!!!sPQQQQWD5X..   o;9zMMvf3%X.    .$qFWQQQQQQQQQQQQQQQU4X        ..XX.X..X.XX..XXX.X.X..X.X..X=zWQQQQQQQQQPa!!!!!!!",
"!!!!!!!!ZWQQQQWn1X     X+&=;=$oX     X$qFEQQQQQQQQQQQQQQQQI<X                                  . .*zWQQQQQQQQWC!!!!!!!!",
"!!!!!!!!BRQQQQQUv>X.      X..       X&fJWQQQQQQQQQQQQQQQQQU<X                                    X*zWQQQQQQQQPs!!!!!!!!",
"!!!!!!!!!ZWQQQQQYv1+X             XO>zUWQQQQQQQQQQQQQQQQQQU4X                                    .*xWQQQQQQQQZ!!!!!!!!!",
"!!!!!!!!!BRQQQQQQTN9=OX.       XXO=0SEQQQQQQQQQQQQQQQQQQQQU3@@@@@@@@@@@@@@@@@@@@@@@@@@@@@@@@@@@@@@:cWQQQQQQQRa!!!!!!!!!",
"!!!!!!!!!!ZQQQQQQQWIc8>%Oooooo@&<qnUWQQQQQQQQQQQQQQQQQQQQQExfrdddddrdrdddddddrdddddddddddddrddddddjDQQQQQQQQZ!!!!!!!!!!",
"!!!!!!!!!!aRQQQQQQQQWUAzr95569dxSTWQQQQQQQQQQQQQQQQQQQQQQQQQWQQWQWQWWQQWQWWWWQQWWWQWWQWWWQWQQWWWWQWQQQQQQQQPa!!!!!!!!!!",
"!!!!!!!!!!!CWQQQQQQQQQQWWTIKITWQQQQQQQQQQQQQQQQQQQQQQQQQQQQQQQQQQQQQQQQQQQQQQQQQQQQQQQQQQQQQQQQQQQQQQQQQQQWC!!!!!!!!!!!",
"!!!!!!!!!!!iPQQQQQQQQQQQQQQQQQQQQQQQQQQQQQQQQQQQQQQQQQQQQQQQQQQQQQQQQQQQQQQQQQQQQQQQQQQQQQQQQQQQQQQQQQQQQQL!!!!!!!!!!!!",
"!!!!!!!!!!!!sRQQQQQQQQQQQQQQQQQQQQQQQQQQQQQQQQQQQQQQQQQQQQQQQQQQQQQQQQQQQQQQQQQQQQQQQQQQQQQQQQQQQQQQQQQQQRs!!!!!!!!!!!!",
"!!!!!!!!!!!!!CWQQQQQQQQQQQQQQQQQQQQQQQQQQQQQQQQQQQQQQQQQQQQQQQQQQQQQQQQQQQQQQQQQQQQQQQQQQQQQQQQQQQQQQQQQWV!!!!!!!!!!!!!",
"!!!!!!!!!!!!!pLQQQQQQQQQQQQQQQQQQQQQQQQQQQQQQQQQQQQQQQQQQQQQQQQQQQQQQQQQQQQQQQQQQQQQQQQQQQQQQQQQQQQQQQQWLi!!!!!!!!!!!!!",
"!!!!!!!!!!!!!!sPQQQQQQQQQQQQQQQQQQQQQQQQQQQQQQQQQQQQQQQQQQQQQQQQQQQQQQQQQQQQQQQQQQQQQQQQQQQQQQQQQQQQQQQPa!!!!!!!!!!!!!!",
"!!!!!!!!!!!!!!!VRQQQQQQQQQQQQQQQQQQQQQQQQQQQQQQQQQQQQQQQQQQQQQQQQQQQQQQQQQQQQQQQQQQQQQQQQQQQQQQQQQQQQQRB!!!!!!!!!!!!!!!",
"!!!!!!!!!!!!!!!!CWQQQQQQQQQQQQQQQQQQQQQQQQQQQQQQQQQQQQQQQQQQQQQQQQQQQQQQQQQQQQQQQQQQQQQQQQQQQQQQQQQQQRC!!!!!!!!!!!!!!!!",
"!!!!!!!!!!!!!!!!iZWQQQQQQQQQQQQQQQQQQQQQQQQQQQQQQQQQQQQQQQQQQQQQQQQQQQQQQQQQQQQQQQQQQQQQQQQQQQQQQQQQWZu!!!!!!!!!!!!!!!!",
"!!!!!!!!!!!!!!!!!pLWQQQQQQQQQQQQQQQQQQQQQQQQQQQQQQQQQQQQQQQQQQQQQQQQQQQQQQQQQQQQQQQQQQQQQQQQQQQQQQQWLp!!!!!!!!!!!!!!!!!",
"!!!!!!!!!!!!!!!!!!aLWQQQQQQQQQQQQQQQQQQQQQQQQQQQQQQQQQQQQQQQQQQQQQQQQQQQQQQQQQQQQQQQQQQQQQQQQQQQQQWLp!!!!!!!!!!!!!!!!!!",
"!!!!!!!!!!!!!!!!!!!aLWQQQQQQQQQQQQQQQQQQQQQQQQQQQQQQQQQQQQQQQQQQQQQQQQQQQQQQQQQQQQQQQQQQQQQQQQQQQWLa!!!!!!!!!!!!!!!!!!!",
"!!!!!!!!!!!!!!!!!!!!aLWQQQQQQQQQQQQQQQQQQQQQQQQQQQQQQQQQQQQQQQQQQQQQQQQQQQQQQQQQQQQQQQQQQQQQQQQQWZa!!!!!!!!!!!!!!!!!!!!",
"!!!!!!!!!!!!!!!!!!!!!pZQQQQQQQQQQQQQQQQQQQQQQQQQQQQQQQQQQQQQQQQQQQQQQQQQQQQQQQQQQQQQQQQQQQQQQQQRZp!!!!!!!!!!!!!!!!!!!!!",
"!!!!!!!!!!!!!!!!!!!!!!pCRQQQQQQQQQQQQQQQQQQQQQQQQQQQQQQQQQQQQQQQQQQQQQQQQQQQQQQQQQQQQQQQQQQQQQRCi!!!!!!!!!!!!!!!!!!!!!!",
"!!!!!!!!!!!!!!!!!!!!!!!uVPQQQQQQQQQQQQQQQQQQQQQQQQQQQQQQQQQQQQQQQQQQQQQQQQQQQQQQQQQQQQQQQQQQQPVu!!!!!!!!!!!!!!!!!!!!!!!",
"!!!!!!!!!!!!!!!!!!!!!!!!!BLWQQQQQQQQQQQQQQQQQQQQQQQQQQQQQQQQQQQQQQQQQQQQQQQQQQQQQQQQQQQQQQQWLs!!!!!!!!!!!!!!!!!!!!!!!!!",
"!!!!!!!!!!!!!!!!!!!!!!!!!!pZRQQQQQQQQQQQQQQQQQQQQQQQQQQQQQQQQQQQQQQQQQQQQQQQQQQQQQQQQQQQQWRZp!!!!!!!!!!!!!!!!!!!!!!!!!!",
"!!!!!!!!!!!!!!!!!!!!!!!!!!!uBPWQQQQQQQQQQQQQQQQQQQQQQQQQQQQQQQQQQQQQQQQQQQQQQQQQQQQQQQQQWPBy!!!!!!!!!!!!!!!!!!!!!!!!!!!",
"!!!!!!!!!!!!!!!!!!!!!!!!!!!!!pZRQQQQQQQQQQQQQQQQQQQQQQQQQQQQQQQQQQQQQQQQQQQQQQQQQQQQQQQRCp!!!!!!!!!!!!!!!!!!!!!!!!!!!!!",
"!!!!!!!!!!!!!!!!!!!!!!!!!!!!!!tBLWQQQQQQQQQQQQQQQQQQQQQQQQQQQQQQQQQQQQQQQQQQQQQQQQQQQWLst!!!!!!!!!!!!!!!!!!!!!!!!!!!!!!",
"!!!!!!!!!!!!!!!!!!!!!!!!!!!!!!!!uVPWQQQQQQQQQQQQQQQQQQQQQQQQQQQQQQQQQQQQQQQQQQQQQQQWLVu!!!!!!!!!!!!!!!!!!!!!!!!!!!!!!!!",
"!!!!!!!!!!!!!!!!!!!!!!!!!!!!!!!!!!iVLRWQQQQQQQQQQQQQQQQQQQQQQQQQQQQQQQQQQQQQQQQQQRLBi!!!!!!!!!!!!!!!!!!!!!!!!!!!!!!!!!!",
"!!!!!!!!!!!!!!!!!!!!!!!!!!!!!!!!!!!!iBLPWQQQQQQQQQQQQQQQQQQQQQQQQQQQQQQQQQQQQWWPZBu!!!!!!!!!!!!!!!!!!!!!!!!!!!!!!!!!!!!",
"!!!!!!!!!!!!!!!!!!!!!!!!!!!!!!!!!!!!!!yaVZPWWQQQQQQQQQQQQQQQQQQQQQQQQQQQQQWRPLVay!!!!!!!!!!!!!!!!!!!!!!!!!!!!!!!!!!!!!!",
"!!!!!!!!!!!!!!!!!!!!!!!!!!!!!!!!!!!!!!!!!iaVZPRWWQQQQQQQQQQQQQQQQQQQQQWRPPZVai!!!!!!!!!!!!!!!!!!!!!!!!!!!!!!!!!!!!!!!!!",
"!!!!!!!!!!!!!!!!!!!!!!!!!!!!!!!!!!!!!!!!!!!!upsVCLPRRWWWQQQQQQQQWWWPPLZVspu!!!!!!!!!!!!!!!!!!!!!!!!!!!!!!!!!!!!!!!!!!!!",
"!!!!!!!!!!!!!!!!!!!!!!!!!!!!!!!!!!!!!!!!!!!!!!!!yipaBVCCZZZZZZZCCVBapit!!!!!!!!!!!!!!!!!!!!!!!!!!!!!!!!!!!!!!!!!!!!!!!!",
"!!!!!!!!!!!!!!!!!!!!!!!!!!!!!!!!!!!!!!!!!!!!!!!!!!!!!!tttyyyyttt!!!!!!!!!!!!!!!!!!!!!!!!!!!!!!!!!!!!!!!!!!!!!!!!!!!!!!!",
"!!!!!!!!!!!!!!!!!!!!!!!!!!!!!!!!!!!!!!!!!!!!!!!!!!!!!!!!!!!!!!!!!!!!!!!!!!!!!!!!!!!!!!!!!!!!!!!!!!!!!!!!!!!!!!!!!!!!!!!",
"!!!!!!!!!!!!!!!!!!!!!!!!!!!!!!!!!!!!!!!!!!!!!!!!!!!!!!!!!!!!!!!!!!!!!!!!!!!!!!!!!!!!!!!!!!!!!!!!!!!!!!!!!!!!!!!!!!!!!!!",
"!!!!!!!!!!!!!!!!!!!!!!!!!!!!!!!!!!!!!!!!!!!!!!!!!!!!!!!!!!!!!!!!!!!!!!!!!!!!!!!!!!!!!!!!!!!!!!!!!!!!!!!!!!!!!!!!!!!!!!!"
};
